<?xml version="1.0" encoding="utf-8"?>
<!-- Generator: Adobe Illustrator 16.0.0, SVG Export Plug-In . SVG Version: 6.00 Build 0)  -->
<!DOCTYPE svg PUBLIC "-//W3C//DTD SVG 1.1//EN" "http://www.w3.org/Graphics/SVG/1.1/DTD/svg11.dtd">
<svg version="1.1" id="Layer_1" xmlns="http://www.w3.org/2000/svg" xmlns:xlink="http://www.w3.org/1999/xlink" x="0px" y="0px"
	 viewBox="0 0 238.993 70.851" enable-background="new 0 0 238.993 70.851"
	 xml:space="preserve">
<g>
	<path fill="#009FE3" d="M17.729,49.747l-2.125-0.064c0.016-0.514,0-1-0.015-1.435c-0.041-1.255-0.073-2.246,0.674-2.835
		c0.288-0.229,0.793-0.455,1.563-0.245c1.641,0.447,2.684-0.24,4.386-1.494c1.274-0.938,2.719-2.001,4.736-2.4
		c1.549-0.308,3.253-0.298,5.061-0.288c2.993,0.02,6.384,0.034,9.62-1.481c0.831-0.388,1.151-0.799,1.523-1.274
		c0.392-0.501,0.836-1.069,1.745-1.51c1.465-0.71,4.205-1.109,8.376-1.222c2.073-0.055,3.75-3.105,4.556-5.701
		c0.842-2.71,0.927-4.208-0.233-7.73c-1.448-4.402-5.633-8.27-8.403-10.828l-0.529-0.49c-0.058-0.054-0.156-0.15-0.29-0.282
		c-3.608-3.568-6.929-5.895-9.872-6.917c-7.498-2.604-14.765-1.709-22.872,2.817c-4.291,2.396-6.888,6.316-9.687,11.865
		c-3.338,6.618-3.538,7.014-3.799,15.046c-0.015,0.189-0.255,3.174,1.495,5.088c1.017,1.112,2.557,1.679,4.578,1.683l0.314,0.048
		c1.342,0.408,1.619,1.178,1.794,2.868c0.286,2.75,0.231,6.444,0.229,6.601l-2.126-0.033c0-0.037,0.055-3.726-0.217-6.349
		c-0.062-0.598-0.125-0.882-0.164-1.011c-2.561-0.037-4.571-0.835-5.977-2.372c-2.333-2.552-2.084-6.234-2.047-6.646
		c0.267-8.25,0.538-8.972,4.022-15.88C7.027,11.366,9.832,7.17,14.596,4.51C23.151-0.266,31.2-1.237,39.202,1.541
		c3.245,1.126,6.834,3.621,10.669,7.414c0.112,0.111,0.193,0.192,0.242,0.237l0.524,0.485c2.752,2.543,7.359,6.799,8.979,11.725
		c1.231,3.74,1.283,5.68,0.244,9.026c-0.516,1.661-2.511,7.089-6.529,7.195c-4.996,0.135-6.847,0.69-7.506,1.01
		c-0.465,0.225-0.677,0.496-0.998,0.906c-0.449,0.573-1.007,1.287-2.297,1.891c-3.669,1.719-7.314,1.699-10.532,1.682
		c-1.698-0.005-3.297-0.018-4.637,0.248c-1.551,0.307-2.739,1.181-3.888,2.027c-1.625,1.197-3.304,2.432-5.775,1.935
		c-0.004,0.264,0.007,0.589,0.016,0.857C17.729,48.655,17.746,49.186,17.729,49.747z"/>
	<path fill-rule="evenodd" clip-rule="evenodd" fill="#EDEDED" d="M28.798,14.809l0.004,0.538l0.419,0.031
		c0.209-0.252,0.191,0.378,0.191-0.474l0.273-0.064c0,0.619,0.053,0.471,0.181,0.634h0.454c0.095-0.268,0.083-0.213,0.091-0.573
		l0.273-0.021c0,0.364-0.003,0.33,0.092,0.594h0.453l0.129-0.188c0.104-0.231,0.052-0.019,0.052-0.393
		c0.836,0.033,0.356-0.06,0.364-0.09c-0.02,0.02-0.131-0.345-0.064,0.374l0.064,0.2c0,0,0.142,0.195,0.472,0.078
		c0.255-0.09,0.078,0.06,0.202-0.174c0.016-0.03,0.019-0.055,0.029-0.088c0.01-0.035,0.008-0.059,0.012-0.096
		c0.009-0.077-0.016-0.458-0.169-0.58c0.041,0.653-0.082,0.201,0.183,0.342c0.129,0.069,0.246,0.043,0.272-0.056
		c0,0.488-0.042,0.387,0.181,0.67h0.454c0.091-0.257,0.091-0.221,0.091-0.579l0.273,0.004c0,0.084-0.006,0.214,0.006,0.294
		c0.041,0.272,0.063,0.292,0.277,0.403c1.048,0.546,0.512,0.845,1.059,1.017c0.072,0.022,0.628,0.008,0.747,0.002l-0.8,0.028
		c-0.102,0.736-0.231,0.359-0.141,0.835c0.005,0.03,0.047,0.112,0.054,0.097c0.021-0.05-0.059,0.159,0.422,0.195
		c0.11,0.008,0.243-0.012,0.353,0.004c0.312,0.046,0.323,0.293,0.731,0.12l0.192-0.087c0.45-0.138,0.303,0.088,0.46-0.131
		c-0.593,0-0.401,0.387-0.401,0.36c0-0.009,0.024,0.018,0.037,0.023c-0.284-0.013-0.157-0.104-0.546-0.089
		c-0.266,0.01-0.26,0.075-0.545,0.088c-0.576,0.028-0.736-0.006-0.796,0.367c-0.08,0.506,0.037,0.206,0.072,0.303
		c0.028,0.012,0.059,0.029,0.085,0.037s0.055,0.024,0.086,0.031c0.245,0.057-0.027,0.009,0.186,0.032
		c0.057,0.005,0.215-0.005,0.283-0.004c0.246,0.003,1.201,0.252,1.448-0.094c-0.59,0.04-0.283-0.142-0.363,0.382
		c-0.503,0.001,0.102-0.076-0.451-0.084l-0.736,0.083c-0.174,0.01-0.395,0.019-0.504,0.132c-0.152,0.157-0.06-0.058-0.107,0.236
		c-0.08,0.505,0.037,0.206,0.072,0.303c0.199,0.087,0.085,0.082,0.456,0.1c0.98,0.05,0.007,0.187,1.269,0.187
		c0.258-0.453,0.129,0.042,0.364-0.286c-0.4,0.045-0.287,0-0.363,0.382c-0.432,0,0.14-0.029-0.368-0.071
		c-0.077-0.006-0.208,0.024-0.24,0.028c-1.034,0.149-1.168-0.134-1.209,0.712c0.522,0.207,0.87-0.099,1.09,0.287
		c0.409,0,0.392,0.029,0.702-0.094c0.336-0.134-0.111-0.036,0.324-0.121c2.419,0.042,4.917,0.065,7.386,0.065
		c0.56-1.071,1.28-0.116,1.236,0.245c-0.191,0.42-0.892,0.961-1.145,0.189c-0.151-0.176,0.131-0.143-0.413-0.203
		c-0.555-0.061-6.207,0.083-6.637,0.014c-0.392-0.128,0.152,0.146-0.087-0.085c-0.474-0.458-0.651-0.08-0.73-0.011
		c0.168,0.355-0.276,0.236,0.454,0.286V21.31c-0.204,0-1.267-0.152-1.698-0.028c-0.12,0.034-0.255,0.065-0.333,0.216
		c-0.123,0.242-0.037,0.11-0.037,0.284c0,0.029,0.028,0.111,0.03,0.099s0.026,0.065,0.039,0.099c0.028,0.013,0.059,0.03,0.085,0.037
		c0.334,0.095,0.167,0.075,0.556,0.038c0.438-0.041-0.184-0.104,0.271,0.049c0.593,0.2,0.876-0.063,0.993-0.125
		c0.112,0.244,0.087,0.007,0.092,0.001h-0.454c0.033,0.591-0.03-0.061,0.021,0.284c0.005,0.034,0.03,0.116,0.035,0.106
		c0.004-0.009,0.032,0.058,0.046,0.087c-0.091-0.541-0.86-0.113-0.941-0.101c-0.52,0.082-0.792-0.091-0.866,0.372
		c-0.08,0.506,0.037,0.206,0.072,0.303l0.357,0.099c0.406,0.041,0.327-0.118,0.755,0.105l0.159,0.082
		c0.299-0.022,0.596-0.087,0.727-0.286c-0.339,0.089-0.357-0.127-0.231,0.394c0.105,0.433,0.198,0.111,0.231,0.084
		c-0.262,0-0.85-0.407-2.089,0.096c0.027,0.448,0.053,0.294,0.121,0.537l0.051,0.44l0.317,0.049
		c-0.253,0.089-0.209,0.032-0.367,0.218c0.141,0.495,0.435,0.289,0.79,0.301c0.526,0.019,0.187,0.341,0.996-0.022
		c1.625,0.215,3.586,0.021,5.268,0.085c0.325,0.398,0.61,0.719,0.999,1.23c0.847,0.033,2.579-0.162,3.21,0.09
		c0.341,0.967-0.411,0.515,0.306,1.512c0.139,0.194,0.149,0.276,0.226,0.483c-0.117,0.149-0.695,1.379-1.309-0.045
		c0.361-0.874,0.521-0.252,0.437-1.587c-2.727-0.4-2.546,0.76-3.901-1.243c-0.466-0.018-4.252-0.052-4.691,0.011
		c-0.189,0.027-0.248,0.07-0.458,0.072c-0.23,0.001-1.286-0.264-1.869,0.164c0.056,0.198,0.091,0.215,0.188,0.362
		c-0.546,0.441,0.332,0.52-0.222,0.5c0.004,0.463,0.086,0.57,0.115,0.928c0.048,0.601-0.015-0.109-0.155,0.306
		c-0.081,0.243-0.043,0.095-0.052,0.392c0.332,0.131,0.444,0.096,0.872,0.096c-0.928-0.288-0.699,0.248-0.701,0.288
		c0.02,0.017,0.044,0.021,0.058,0.053c0.014,0.033,0.048,0.038,0.067,0.043c0.17,0.052,0.073,0.032,0.285,0.048
		c-0.977,0.417-0.254,0.231-0.771,0.619c-0.75,0.562-2.128,0.219-2.343,0.23c-0.194,0.01-0.222,0.076-0.552,0.089
		c-0.277,0.01-0.485-0.039-0.686-0.058c-0.722-0.071-1.979,0.127-3.179-0.001c-0.283-0.03-0.268,0.113-1.276-0.005
		c-0.258-0.03-0.298-0.001-0.372,0.226c0.19,0.11,0.859,0.208,0.339,1.188c-0.012,0.021-0.027,0.057-0.037,0.075
		c-0.01,0.018-0.025,0.051-0.037,0.077c0.271,0.646,0.097,1.253,0.1,2.488c0.002,0.91,0.027,1.871-0.01,2.775l-4.041,3.125
		c-2.364,1.686-1.361,1.607-3.703,1.607c-1.098,0-3.183-0.133-4.16,0.027c-0.156,1.033,0.077,7.449-0.023,7.857
		c-0.1,0.406-0.067,0.207-0.306,0.33c-0.138-0.406-0.194-9.045,0.071-8.59l0.325-0.057c0.183,0.004,0.325,0.041,0.551,0.039
		c0.333,0,0.66,0.01,0.999,0.01c0.666,0,1.332,0,1.998,0c2.723-0.002,1.76,0.191,4.426-1.785c0.396-0.293,0.74-0.59,1.149-0.896
		c0.42-0.316,0.756-0.594,1.146-0.896l1.165-0.947c0.026-1.072,0.123-3.119-0.102-4.18c-0.104-0.492,0.177-0.68,0.269-1.003
		c-0.101-0.082-0.149-0.11-0.282-0.217l0.015-1.19c-0.511-0.009-1.017,0.007-1.521,0.001c-0.583-0.007-1.055-0.396-1.053,0.319
		l-0.431,0l0.188-0.251c-0.532-0.325-0.682,0.098-1.293-0.127c-0.216-0.079-0.354-0.213-0.507-0.336
		c-0.352-0.284-0.169-0.061-0.373-0.468l-0.339,0.013l0.04-0.568c0.568,0.011,0.396-0.165,0.293-0.588
		c-0.281,0.005-0.616,0.197-1.272-0.094c0.018-0.247-0.132-0.57,0.745-0.478c0.483,0.051,0.528,0.074,0.531-0.484
		c-0.607,0.006-0.298,0.167-1.019-0.017c-0.823-0.209-0.732,0.138-1.135,0.107c-0.242-0.019,0.015-0.098-0.443-0.167l-2.145,0.005
		c-0.13,0.445-2.728,4.112-2.955,4.393L9.43,31.12c-0.305,0.2-0.442,0.465-0.726,0.471c-0.311,0.007-0.562-0.265-0.609-0.538
		c-0.131-0.764,0.734-1.133,1.188-0.32c1.159,0.001,2.571,0.075,3.699,0.002c0.429-0.027,0.407-0.098,0.594-0.379l1.177-1.732
		c2.149-3.232,1.03-2.029,4.151-2.384c0.327-0.037,0.386,0.03,0.576,0.104l0.286,0.106c0.292-0.359,0.55-0.189,0.931-0.203
		c0.662-0.024,0.224,0.013,0.429-0.155c-0.088-0.435,0.036-0.328-0.42-0.351c-0.305-0.015-0.353,0.027-0.675-0.046
		c-0.805-0.183-0.921,0.273-1.188,0.016l0.49-0.015l-0.002-0.37c0.355,0.254,0.766-0.055,0.871-0.082
		c0.116-0.029,0.724,0.082,1.036,0.082c0-1.096-0.106-0.699-0.308-0.863c-0.215-0.175-0.266-0.057,0.309-0.285l-0.005-0.663
		c-0.255-0.11-0.418-0.031-0.418-0.196c0-0.193,0.038-0.04,0.161-0.133c0.354-0.267-0.169,0.232,0.128-0.087
		c0.365-0.39,0.046-0.642-0.364-0.731c0.265-0.261-0.233-0.632-0.502-0.39c0.12,0,0.466,0.015,0.562-0.007
		c0.421-0.099,0.286-0.022,0.346-0.471l-0.265-0.14c-0.025-0.005-0.052-0.001-0.075-0.002c-0.017,0-0.196,0.069-0.245,0.08
		l-0.323-0.029c-0.311-0.31-0.799-0.251-1.027-0.099c0.093-0.028,0.024,0.321,0.09-0.104c0.083-0.529-0.003-0.11-0.062-0.279
		c-0.371-0.146-0.181-0.093-0.273-0.001c0.456,0.021-0.04,0.192,1.09,0.192c0.119-0.208,0.032-0.243,0.418-0.189
		c0.202,0.028,0.115,0.104,0.757,0.081c0.012-0.751,0.04-0.73-0.395-0.75l0.009-0.289c0.03,0,0.125-0.005,0.146-0.014
		c0.501-0.214-0.323,0.324,0.246-0.177v-0.573c-0.456-0.184-0.363,0.059-0.377-0.288c0.217-0.001,0.277-0.021,0.468-0.097v-0.668
		c-0.227-0.09-0.17-0.087-0.477-0.097l-0.035-0.286c0.149,0,0.598,0.173,0.427-0.489c-0.145-0.561-0.801-0.083-0.193-0.609
		l0.278-0.72c0.165-0.092,0.101-0.101,0.301-0.223c0.136-0.083,0.136-0.065,0.244-0.13c0.142-0.084,0.19-0.114,0.217-0.216
		c0.091-0.352,0.056-0.11,0.056-0.58c0.758-0.005,0.298,0.069,0.454-0.287H22.51c-0.021,0.496-0.033-0.144-0.079,0.371
		c-0.04,0.452,0.074,0.517,0.339,0.58c0.034,0.008,0.142,0.007,0.193,0.007c0.024-0.031,0.053-0.062,0.07-0.094
		c0.174-0.33,0.105-0.092,0.112-0.489l0.364-0.021c0,0.081-0.008,0.255,0.012,0.325c0.086,0.299,0.029,0.101,0.169,0.279h0.453
		c0.096-0.268,0.084-0.213,0.091-0.574l0.273,0c0,0.358,0,0.321,0.091,0.575h0.544c0.095-0.268,0.091-0.235,0.09-0.591l0.274,0.017
		c0,0.358,0,0.321,0.091,0.575h0.454c0.215-0.273,0.181-0.218,0.181-0.646c0.192,0.085-0.034,0.081,0.274,0.055
		c0.42-0.036,0.075-0.02,0.09-0.079c0,0.488-0.042,0.387,0.181,0.67h0.454c0.101-0.535,0.051-0.48,0.02-0.812
		c-0.028-0.288-0.033-0.022,0.034-0.211c0.007-0.018,0.024-0.045,0.031-0.063c0.177-0.449-0.063-0.931-0.174-1.019
		c0.034,0.554-0.146,0.379,0.455,0.383c-0.12,0.186-0.089-0.265-0.085,0.285c0.005,0.608,0.356,0.428,0.085,0.577
		c0,0.134-0.01,0.358,0.006,0.492c0.029,0.244,0.033,0.368,0.539,0.368c0.154-0.196,0.181-0.118,0.181-0.574
		c-0.072,0.413-0.075,0.515,0.273,0.549c0.083-0.205,0.021-0.162,0.066-0.353c0.007-0.028,0.011-0.06,0.019-0.084
		c0.007-0.024,0.023-0.057,0.029-0.076L28.798,14.809L28.798,14.809z"/>
	<path fill-rule="evenodd" clip-rule="evenodd" fill="#EDEDED" d="M28.798,14.809l-0.089,0.125
		c-0.006,0.019-0.022,0.052-0.029,0.076c-0.007,0.025-0.012,0.057-0.019,0.084c-0.045,0.191,0.016,0.148-0.066,0.353
		c-0.348-0.034-0.345-0.136-0.273-0.549c0,0.457-0.027,0.378-0.181,0.574c-0.506,0-0.51-0.124-0.539-0.368
		c-0.016-0.134-0.006-0.358-0.006-0.492c0.271-0.149-0.08,0.031-0.085-0.577c-0.004-0.55-0.035-0.099,0.085-0.285
		c-0.6-0.004-0.42,0.17-0.455-0.383c0.111,0.088,0.352,0.57,0.174,1.019c-0.007,0.018-0.024,0.045-0.031,0.063
		c-0.067,0.188-0.062-0.077-0.034,0.211c0.032,0.333,0.082,0.277-0.02,0.812h-0.454c-0.223-0.283-0.181-0.183-0.181-0.67
		c-0.016,0.059,0.33,0.043-0.09,0.079c-0.308,0.026-0.082,0.03-0.274-0.055c0,0.428,0.034,0.373-0.181,0.646h-0.454
		c-0.09-0.254-0.091-0.217-0.091-0.575l-0.274-0.017c0,0.356,0.005,0.323-0.09,0.591h-0.544c-0.091-0.254-0.091-0.217-0.091-0.575
		l-0.273,0c-0.007,0.361,0.004,0.307-0.091,0.574H23.69c-0.141-0.179-0.083,0.02-0.169-0.279c-0.02-0.07-0.012-0.245-0.012-0.325
		l-0.364,0.021c-0.007,0.396,0.062,0.159-0.112,0.489c-0.017,0.033-0.045,0.063-0.07,0.094c-0.051,0-0.159,0.001-0.193-0.007
		c-0.265-0.063-0.378-0.128-0.339-0.58c0.045-0.514,0.058,0.125,0.079-0.371H22.6c-0.155,0.356,0.305,0.282-0.454,0.287
		c0,0.47,0.035,0.228-0.056,0.58c-0.027,0.102-0.076,0.132-0.217,0.216c-0.108,0.064-0.108,0.046-0.244,0.13
		c-0.2,0.122-0.136,0.131-0.301,0.223l-0.278,0.72c-0.608,0.525,0.048,0.048,0.193,0.609c0.17,0.662-0.278,0.488-0.427,0.489
		l0.035,0.286c0.307,0.01,0.25,0.007,0.477,0.097v0.668c-0.191,0.076-0.251,0.095-0.468,0.097c0.014,0.347-0.079,0.104,0.377,0.288
		v0.573c-0.569,0.501,0.255-0.037-0.246,0.177c-0.021,0.009-0.115,0.014-0.146,0.014l-0.009,0.289c0.434,0.02,0.407,0,0.395,0.75
		c-0.642,0.023-0.555-0.053-0.757-0.081c-0.386-0.054-0.3-0.018-0.418,0.189c-1.13,0-0.634-0.171-1.09-0.192
		c0.092-0.092-0.098-0.145,0.273,0.001c0.058,0.169,0.144-0.25,0.062,0.279c-0.066,0.424,0.003,0.076-0.09,0.104
		c0.229-0.152,0.717-0.21,1.027,0.099c-0.733-0.123-0.998,0.147-1.339,0.085c-0.657-0.121-0.44-0.134-1.295-0.136l-6.812,0.004
		c-0.411-0.001-1.044,0.127-1.338-0.148c-0.239-0.489-0.036-2.5-0.084-3.252l-0.401-0.406l-0.882-0.024
		c-0.185,0.159-0.247,0.236-0.383,0.376c-0.895,0.072-1.129-0.734-0.621-1.166c0.349-0.297,0.665-0.068,0.866,0.108
		c0.316,0.278,0.452,0.218,0.936,0.191c0.543-0.745,1.346-0.66,1.325,0.614l-0.453,0.348c0.009,0.831-0.086,2.149,0.127,2.897
		c1.174,0.267,5.898,0.051,7.629,0.052c0.402,0,0.863,0.054,1.223-0.069c0.484-0.165,0.571,0.068,1.048,0.109
		c0.226-0.12,0.334-0.25,0.719-0.217c0.523,0.043,0.493,0.305,0.582-0.272c-0.252-0.132-0.74-0.143-1.077-0.226
		c-0.644-0.158-0.521,0.158-1.025,0.123c-0.33-0.023-0.607-0.094-1.106-0.092c-0.594,0.003-6.387,0.114-6.611-0.072
		c-0.237-0.196-0.162-0.747-0.16-1.03c0.006-0.677,0.121-3.081-0.007-3.442c-0.171-0.229-0.396-0.331-0.376-0.759
		c0.02-0.433,0.333-0.516,0.614-0.63c0.841,0.321,0.796,0.775,0.245,1.387l-0.013,4.046c0.445,0.051,6.543,0.13,7.206-0.037
		c0.521-0.132,0.649,0.283,1.138,0.066c0.146-0.064,0.12-0.093,0.33-0.119c0.232-0.029,0.451,0.029,0.671,0.082
		c0.038,0.009,0.07,0.017,0.102,0.024c0.035,0.008,0.074,0.017,0.111,0.023l-0.01-0.523c-0.455-0.145-0.24,0.058-0.71-0.021
		c-0.34-0.057-0.507-0.186-0.802-0.146c-0.583,0.079-0.282,0.272-0.865,0.124c-0.135-0.035-0.261-0.026-0.405-0.028
		c-1.234-0.019-2.472,0.012-3.706,0c-0.109-0.286-1.371-2.917-1.596-3.265c-0.119-0.184-0.613-0.367-0.787-0.593l-0.095-0.134
		c-0.014-0.018-0.036-0.049-0.054-0.074l0.263-0.529c0.311-0.412,1.022-0.278,1.11,0.338c0.104,0.73-0.627-0.215,0.402,1.913
		c0.255,0.526,0.728,1.308,0.887,1.856c0.855,0.006,1.717,0.014,2.572,0.008c0.353-0.002,0.951,0.038,1.269-0.021
		c0.226-0.043,0.58-0.088,0.81,0.002l0.25,0.098c0.03,0.011,0.069,0.022,0.104,0.034c0.153-0.18,0.233-0.229,0.563-0.237
		c0.23-0.005,0.231,0.021,0.422,0.057l0.43-0.174c-0.034-0.541-0.603-0.25-1.246-0.383c-0.549-0.114-0.564,0.164-1.114,0.05
		c-0.758-0.158-1.694-0.086-2.578-0.102c-0.553-0.67-1.155-2.168-1.606-3.027c-0.2-0.379-0.42-0.694-0.54-1.069
		c-1.317-0.046-2.731-0.085-4.036,0.073c-0.485,0.059-0.555,0.111-0.828,0.493c-0.689-0.037-0.822-0.229-0.839-0.988
		c0.238-0.177,0.278-0.392,0.668-0.362c0.312,0.023,0.443,0.253,0.665,0.425c0.107,0.084,3.372,0,3.885-0.026
		c0.87-0.043,0.992,0.641,1.318,1.316c0.167,0.345,0.294,0.576,0.481,0.935c0.247,0.474,0.691,1.519,0.951,1.779
		c0.309,0.207,1.429,0.081,1.789,0.08c0.848-0.003,0.797-0.246,1.543,0.112c0.236-0.123,0.344-0.29,0.639-0.299
		c0.241-0.008,0.311,0.064,0.376,0.07c0.73,0.064,0.196,0.046,0.415-0.125c-0.091-0.559,0.142-0.236-0.232-0.342
		c-0.007-0.002-0.419,0.016-0.476,0.015c-0.351-0.005-0.489-0.114-0.722-0.218c-0.025,0.012-0.062,0.001-0.075,0.037
		c-0.044,0.123-0.438,0.189-0.561,0.19c-0.405,0.005-0.287-0.155-0.63-0.169c-1.85-0.074-1.412,0.512-2.376-1.411l-1.056-2.16
		c-0.08-0.156-0.157-0.277-0.197-0.359c-0.22-0.446-0.653-2.394-0.012-2.5c0.33-0.054-0.106-0.003,0.177-0.026l1.369,0.005
		c0.879,0.003,4.871,0.116,5.178-0.006c0.554-0.492,0.881-0.794,1.316,0.245c-0.104,0.294-0.253,0.583-0.52,0.65
		c-0.469,0.117-0.531-0.202-0.72-0.331c-0.515-0.352-6.038-0.159-6.641-0.062c-0.127,1.534,0.127,1.701,0.713,2.93l0.607,1.275
		c0.691,1.339,0.548,1.587,2.161,1.395c0.324-0.038,0.387-0.164,0.616-0.153c0.174,0.008,0.447,0.15,0.65,0.207
		c0.618-0.291,0.711-0.168,1.423-0.104c0.028-0.345,0.079-0.368,0.094-0.763c0.242-0.193,0.502-0.324,0.796-0.481
		c-0.001-0.278-0.062-0.645-0.063-0.76c-0.003-0.223,0.12-0.29,0.117-0.533c-0.002-0.168-0.086-0.401-0.069-0.683
		c0.022-0.362,0.09-0.294,0.121-0.717l-4.962-0.01c-0.348,0.268-0.251,0.417-0.817,0.448l-0.494-0.427
		c0.068-1.669,1.23-0.532,1.402-0.485c0.926,0.013,4.631-0.173,5.209,0.104c0.075,0.608,0.224,1.043,0.1,1.541
		c-0.154,0.621,0.044,0.211,0.097,0.708c0.028,0.261-0.057,0.292-0.065,0.389c-0.043,0.53-0.038,0.274,0.199,0.427
		c0.172-0.085,0.021,0.135,0.152-0.094c0.119-0.208,0.076-0.034,0.068-0.549c-0.006-0.466,0.094-0.321,0.082-0.66
		c-0.024-0.672-0.077-0.495,0.03-1.249c0.056-0.39,0.087-2.969-0.06-3.12c-0.22-0.225-5.274-0.076-5.959-0.077
		c-0.836,1.413-1.899-0.665-0.731-0.853c0.404-0.064,0.585,0.234,0.731,0.449l6.274,0.005l0.156,0.226
		c-0.014,0.993-0.001,2.072,0.011,3.082c0.009,0.766,0.142,0.567,0.045,1.456c-0.064,0.591,0.079,0.095,0.085,0.648
		c0.001,0.107-0.045,0.315-0.036,0.396c0.07,0.602-0.099,0.169,0.242,0.342c0.25-0.161,0.199,0.144,0.211-0.341
		c0.011-0.413-0.079,0.072-0.08-0.401c0-0.406,0.16-0.215,0.149-0.557c-0.015-0.464-0.215-0.451-0.042-0.915
		c0.217-0.58,0.088-4.396,0.072-5.167l-8.123-0.009c-0.337,0.101-2.285,1.862-2.767,2.309c-0.396,0.366-0.282,0.852-0.27,1.459
		c0.43,0.27,0.458,0.396,0.46,0.953c-0.186,0.146-0.396,0.479-0.833,0.34c-0.377-0.119-0.307-0.454-0.526-0.705
		c0.273-0.278,0.106-0.316,0.526-0.6l0.013-1.314c0.644-0.546,1.316-1.214,1.963-1.697c1.267-0.946,0.761-1.141,2.524-1.141
		c2.287,0,5.036-0.141,7.267,0.022c0.336,0.695,0.121,3.821,0.124,4.922c0.002,0.875,0.213,0.639,0.007,1.625
		c0.126,0.257,0.195,0.294,0.144,0.602c-0.104,0.617-0.161,0.518,0.339,0.621c0.136-0.517-0.075-0.54,0.062-1.082
		c0.176-0.697-0.195-0.077,0.074-1.252c0.162-0.708-0.013-6.217-0.024-6.258c-0.918-0.039-8.736-0.026-9.033,0.15
		c-0.16,0.094-4.142,3.499-4.395,3.78c-0.245,0.272-0.161,0.638-0.139,1.047l0.352,0.313l0.008,0.644
		c-0.653,0.635-1.136,0.229-1.206-0.21c-0.097-0.605,0.363-0.127,0.485-1.799c1.483-1.265,2.979-2.477,4.417-3.797
		c0.197-0.181,0.412-0.413,0.701-0.468c1.275,0.003,8.672-0.143,9.208,0.114c0.217,1.831-0.191,4.66,0.045,6.349
		c0.037,0.263,0.126,0.286,0.147,0.499c0.041,0.417-0.175,0.337-0.024,0.999c0.181,0.793-0.394,0.585,0.161,0.965
		c0.463-0.239,0.017,0.378,0.283-1.052c0.109-0.586-0.18-0.524-0.03-1.144c0.197-0.816,0.125-7.009,0.041-7.656l-3.201-0.032
		c-0.279,0.076-0.344,0.227-0.477,0.405L21.81,5.868c-0.368-0.607-0.461-0.713,0.074-1.26c0.806-0.089,0.48,0.158,0.883,0.349
		c0.462,0.218,2.629-0.025,3.382,0.034c0.747,0.058,0.491,0.924,0.491,2.542c0,1.133-0.134,4.67,0.037,5.537
		c0.143,0.73-0.04,0.644-0.019,1.049c0.018,0.331,0.109,0.121,0.11,0.492c0,0.142-0.058,0.241-0.045,0.39
		c0.047,0.538,0.006,0.152,0.146,0.346c0.344-0.129,0.114,0.162,0.271-0.185c0.198-0.438-0.288-0.589,0.149-0.957
		c-0.134-0.485-0.26-0.583-0.097-1.076c0.197-0.593,0.086-8.933,0.043-9.333l-1.238-0.041c-0.987,1.464-1.802-0.78-0.662-0.876
		c0.365-0.03,0.523,0.27,0.705,0.443c0.327,0.157,0.839-0.007,1.2,0.028c0.577,0.057,0.415,0.425,0.412,1.312
		c-0.005,1.266-0.102,7.729,0.018,8.328c0.124,0.618,0.282,0.27-0.037,1.049c0.122,0.336,0.023,0.017,0.126,0.295
		c0.106,0.285-0.054,0.276-0.029,0.671c0.031,0.487,0.04,0.232,0.229,0.35c0.362-0.189,0.248-0.221,0.175-0.617
		c-0.024-0.133-0.033-0.229,0.039-0.386c0.244-0.535-0.129-0.236,0.08-1.368c0.13-0.702,0.031-8.672,0.016-9.44
		c-0.387-0.266-0.74-0.843-0.093-1.233c0.486-0.293,0.953,0.149,0.913,0.82l-0.407,0.453c-0.016,0.04-0.162,8.732,0.071,9.516
		c0.09,0.303,0.114,0.233,0.047,0.6C28.685,14.321,28.906,14.338,28.798,14.809L28.798,14.809z"/>
	<path fill-rule="evenodd" clip-rule="evenodd" fill="#EDEDED" d="M36.979,20.903c-0.436,0.084,0.012-0.013-0.324,0.121
		c-0.311,0.124-0.293,0.094-0.702,0.094c-0.22-0.386-0.567-0.081-1.09-0.287c0.041-0.847,0.175-0.563,1.209-0.712
		c0.032-0.004,0.163-0.034,0.24-0.028c0.508,0.042-0.064,0.071,0.368,0.071c0.076-0.383-0.038-0.337,0.363-0.382
		c-0.234,0.329-0.106-0.167-0.364,0.286c-1.262,0-0.289-0.137-1.269-0.187c-0.37-0.019-0.257-0.013-0.456-0.1
		c-0.035-0.097-0.152,0.203-0.072-0.303c0.047-0.294-0.045-0.079,0.107-0.236c0.109-0.113,0.33-0.122,0.504-0.132l0.736-0.083
		c0.552,0.008-0.053,0.085,0.451,0.084c0.08-0.524-0.228-0.342,0.363-0.382c-0.248,0.347-1.203,0.098-1.448,0.094
		c-0.068,0-0.226,0.01-0.283,0.004c-0.212-0.022,0.06,0.025-0.186-0.032c-0.032-0.007-0.061-0.024-0.086-0.031
		s-0.057-0.024-0.085-0.037c-0.035-0.098-0.152,0.203-0.072-0.303c0.06-0.373,0.22-0.338,0.796-0.367
		c0.285-0.014,0.28-0.078,0.545-0.088c0.39-0.015,0.263,0.077,0.546,0.089c-0.013-0.005-0.037-0.032-0.037-0.023
		c0,0.027-0.192-0.36,0.401-0.36c-0.157,0.22-0.011-0.007-0.46,0.131l-0.192,0.087c-0.408,0.174-0.42-0.074-0.731-0.12
		c-0.109-0.016-0.242,0.004-0.353-0.004c-0.48-0.036-0.401-0.245-0.422-0.195c-0.006,0.016-0.048-0.067-0.054-0.097
		c-0.091-0.476,0.039-0.1,0.141-0.835l0.8-0.028c-0.119,0.006-0.675,0.021-0.747-0.002c-0.547-0.172-0.011-0.471-1.059-1.017
		c-0.214-0.111-0.236-0.131-0.277-0.403c-0.012-0.08-0.006-0.21-0.006-0.294L33.5,14.895c0,0.357,0,0.321-0.091,0.579h-0.454
		c-0.223-0.283-0.181-0.183-0.181-0.67c-0.026,0.099-0.143,0.125-0.272,0.056c-0.265-0.141-0.142,0.311-0.183-0.342
		c0.154,0.122,0.179,0.503,0.169,0.58c-0.004,0.037-0.001,0.061-0.012,0.096c-0.01,0.034-0.013,0.059-0.029,0.088
		c-0.124,0.233,0.053,0.083-0.202,0.174c-0.33,0.117-0.471-0.078-0.472-0.078l-0.064-0.2c-0.067-0.719,0.044-0.354,0.064-0.374
		c-0.008,0.03,0.472,0.123-0.364,0.09c0,0.375,0.052,0.162-0.052,0.393l-0.129,0.188h-0.453c-0.095-0.264-0.092-0.229-0.092-0.594
		L30.412,14.9c-0.008,0.36,0.004,0.305-0.091,0.573h-0.454c-0.128-0.163-0.181-0.015-0.181-0.634l-0.273,0.064
		c0,0.852,0.018,0.221-0.191,0.474c0.089-0.586-0.059-0.446-0.067-0.774c-0.009-0.394,0.129-0.038,0.121-0.549
		c-0.003-0.213-0.099-0.412-0.094-0.609c0.007-0.293,0.12-0.254,0.131-0.552c0.079-2.069-0.344-8.146,0.031-9.456
		c0.866-0.35,4.52,0.353,5.182-0.276c0.057-0.053,0.004-0.035,0.137-0.144c0.421-0.349,0.722,0.121,1.066,0.325
		c-0.195,1.078-1.056,1.204-1.271,0.424L29.728,3.76c-0.029,0.827-0.103,8.432,0.001,9.134c0.038,0.254,0.135,0.347,0.122,0.663
		c-0.012,0.325-0.115,0.341-0.104,0.562c0.016,0.328,0.128,0.055,0.104,0.583c-0.019,0.391-0.16,0.459,0.198,0.642
		c0.539-0.326,0.012-0.102,0.244-1.073c0.106-0.444-0.085-0.727,0.02-1.224c0.309-1.465-0.181-7.55,0.213-8.342
		c0.453-0.125,1.917,0.006,2.521-0.002c0.257-0.004,0.438-0.057,0.636-0.067c0.407-0.021,0.837,0.079,1.271,0.044
		c0.382-0.031,0.393,0,0.776,0.019c0.547-0.822,1.578-0.4,1.234,0.47c-0.258,0.652-0.995,0.346-1.284-0.071l-4.836-0.008
		c-0.092,0.571-0.105,4.411-0.107,5.311c-0.001,0.763-0.149,2.107,0.072,2.735c0.209,0.596-0.07,0.455,0.02,1.092l0.011,0.865
		c0.108,0.481-0.023,0.107,0.208,0.253c0.291-0.153,0.211,0.251,0.235-0.441c0.009-0.258-0.041-0.229,0.013-0.541
		c0.108-0.626-0.116-0.504-0.032-1.072c0.035-0.24,0.076-0.128,0.109-0.493c0.017-0.184,0.004-0.48,0.004-0.676
		c0.001-1.053-0.231-5.785,0.087-6.067c0.419-0.157,2.292-0.02,2.986-0.094c0.323-0.269,0.167-0.278,0.685-0.493l0.334,0.189
		c0.152,0.102,0.095,0.087,0.266,0.176c0.014,0.78-0.107,0.892-0.762,1.074c-0.314-0.52-0.854-0.496-1.383-0.494
		c-0.514,0.002-1.309-0.131-1.788,0.094c-0.203,0.677-0.091,4.794-0.066,6.003c0.021,1.029,0.366,0.397-0.021,1.687
		c0.433,0.361,0.052,0.608,0.182,1.154c0.459-0.061,0.464,0.046,0.399-0.49c-0.075-0.607,0.076-0.37,0.065-0.827
		c-0.006-0.255-0.146-0.413-0.081-0.725c0.082-0.396,0.177-0.134,0.152-0.802c-0.021-0.578-0.092-3.304,0.092-3.611
		c0.236-0.254,3.411-0.058,3.981-0.12c0.331-0.638,1.788-2.792,1.917-3.359c0.114-0.499-0.064-1.389,0.768-1.191
		c0.316,0.075,0.429,0.34,0.539,0.625c-0.321,0.995-0.661,0.458-1.039,0.876c-0.51,0.564-1.565,3.21-2.103,3.473
		c-1,0.057-2.907-0.203-3.696,0.082c-0.012,0.026-0.031,0.034-0.034,0.08c-0.108,1.305,0.041,4.211-0.01,4.621
		c-0.042,0.337,0.07,0.252,0.074,0.624c0.008,0.984-0.165,0.55,0.215,0.743c0.205-0.131,0.29,0.148,0.173-0.612
		c-0.068-0.443-0.042-0.193,0.067-0.52c0.118-0.351-0.211-0.492-0.008-1.092c0.219-0.642,0.088-1.547,0.085-2.247
		c-0.005-1.292,0.201-0.741,2.043-0.83c2.828-0.137,1.807,0.676,3.653-2.215c0.229-0.358,0.476-0.734,0.688-1.094
		c0.5-0.849,0.378-0.406,0.333-1.391c0.275-0.206,0.175-0.317,0.546-0.449c0.759-0.271,1.228,1.3-0.175,1.34
		c-0.109,0.337-0.451,0.787-0.628,1.069c-0.506,0.809-1.15,1.756-1.618,2.604c-0.466,0.847-0.655,0.532-2.344,0.534
		c-0.255,0-1.86-0.119-2.052,0.088c-0.22,0.237-0.068,2.301-0.025,2.51c0.096,0.464-0.066,0.879-0.018,1.165
		c0.036,0.207,0.133,0.152,0.109,0.432c-0.015,0.167-0.052,0.469-0.052,0.7c0.485,0.262,1.022,0.389,1.063,1.141
		c0.579,0.002,1.277,0.161,1.463,0.107c0.63-0.184,0.694,0.056,1.326,0.061c0.381,0.003,0.767-0.002,1.149-0.002l1.917-2.737
		c0.205-0.284,0.515-0.575,0.526-1.035l-3.045-0.019l-0.39,0.457c-0.662,0.003-1.238-0.425-0.812-1.026
		c0.437-0.615,0.808-0.189,1.202,0.139l7.812,0.018c0.74-0.718,0.736-0.581,1.316-0.035l0.014,0.478
		c-0.198,0.185-0.259,0.427-0.609,0.436c-0.32,0.008-0.51-0.257-0.721-0.454c-0.885-0.05-1.832-0.01-2.725-0.012
		c-1.651-0.003-1.237-0.23-2.004,0.89c-0.379,0.554-0.775,1.082-1.154,1.655c-1.367,2.071-0.743,1.525-2.661,1.633
		c-0.502,0.028-0.845,0.343-1.206-0.096c-0.033,0.011-0.081-0.009-0.101,0.036c-0.059,0.135-0.951,0.092-1.284,0.34
		c0.132,0.228-0.179,0.182,0.312,0.303c0.16,0.039,0.84-0.003,0.959,0.177l0.304-0.128c0.653-0.229,2.604,0.369,3.324-0.039
		c0.551-0.312,2.327-3.505,2.783-3.733c1.417-0.18,3.65,0.027,5.18-0.01c0.769-0.019,0.517-0.22,0.908-0.412
		c0.349-0.172,0.756,0.075,0.844,0.322c0.21,0.589-0.371,1.503-1.209,0.502l-5.541-0.016c-0.183,0.246-0.461,0.551-0.64,0.807
		c-0.619,0.888-1.251,1.88-1.929,2.75c-0.398,0.51-1.978,0.228-2.704,0.263c-0.393,0.019-0.345,0.1-0.639,0.125
		c-0.314,0.026-0.474-0.112-0.712-0.104c-0.125,0.004-0.782,0.021-0.99,0.117c-0.376,0.175-0.116-0.008-0.251,0.355
		c0.444,0.142,1.299,0.184,1.639,0.109c0.22-0.048,3.123,0.082,3.687,0.072c0.692-0.013,0.814-0.378,1.178-0.76
		c0.396-0.178,9.176,0.17,9.987-0.04c0.328-0.085,0.266-0.232,0.48-0.37c0.457-0.293,0.656,0.164,0.938,0.37
		c-0.039,0.998-0.798,1.153-1.273,0.436l-9.86,0c-0.595,0.252-0.56,0.73-1.267,0.823c-0.942,0.124-2.141-0.097-3.086-0.022
		c-0.367,0.028-0.315,0.196-0.742,0.081c-0.4-0.108-0.956-0.129-1.354-0.017c-0.423,0.119-0.204,0.065-0.323,0.373
		c0.321,0.12,0.317,0.064,0.69,0.085c0.482,0.027,0.143,0.083,0.631,0.208c0.407-0.117,0.208-0.163,0.475-0.208
		c0.246-0.042,0.381,0.069,0.607,0.099c0.37,0.049,0.974,0.008,1.371,0.009c0.91,0.003,1.869,0.026,2.773-0.021
		c0.343-0.515,0.636-0.379,1.405-0.378c1.824,0.004,3.675,0.065,5.495-0.005c0.172-0.272,0.512-0.739,0.991-0.266
		c0.437,0.431,0.079,0.728,0.01,1.184c0.359,0.764,0.351,0.596-0.137,1.194c-0.439,0.248-1.079-0.266-0.814-0.92
		c0.279-0.688-0.045-0.718-0.637-0.713c-0.346,0.003-0.587-0.048-0.911-0.026c-1.505,0.1-3.036,0.018-4.546,0.02
		c-0.571,0-0.361-0.009-0.724,0.249c-0.292,0.208-4.886,0.212-5.153,0.141c-0.415-0.112-0.27-0.005-0.75,0.022
		c-0.838,0.048-0.599-0.065-0.779,0.394c0.39,0.155,0.779,0,1.163,0.237c0.247,0.152,0.336-0.066,0.513-0.118
		C37.051,20.717,36.923,20.82,36.979,20.903L36.979,20.903z"/>
	<path fill-rule="evenodd" clip-rule="evenodd" fill="#EDEDED" d="M44.456,21.403c-0.9-0.122-6.262-0.107-7.438,0.049
		c-0.313,0.042-0.321-0.025-0.538-0.067c-0.332-0.064-0.352,0.003-0.565,0.029c-0.214,0.026-0.229-0.047-0.462,0.004
		c-0.496,0.109-0.309,0.147-0.389,0.441c0.342,0.104,0.455,0.046,0.674,0.024c0.211-0.021,0.262,0.064,0.485,0.164
		c0.438-0.052,0.525-0.263,0.88-0.132c0.631,0.231,18.246,0.1,18.975,0.091c0.549-1.048,1.49-0.174,1.271,0.438
		c-0.169,0.192-0.208,0.433-0.608,0.448c-0.361,0.014-0.541-0.269-0.665-0.474c-0.612-0.001-18.443-0.107-18.911,0.073
		c-0.363,0.139-0.523,0.135-0.79-0.188c-0.033,0.011-0.08-0.01-0.1,0.035l-0.175,0.066c-0.522,0.197-0.603,0.017-0.861,0.141
		c-0.377,0.182-0.114-0.014-0.248,0.353c0.32,0.128,0.301,0.081,0.693,0.084c0.262,0.004,0.188-0.026,0.425,0.09
		c0.192,0.094-0.112-0.029,0.205,0.112c0.7-0.298,0.492-0.123,1.269-0.108c3.168,0.063,7.77,0.033,10.863-0.009
		c0.771-1.084,1.461,0.018,1.176,0.539c-0.273,0.247-0.343,0.363-0.835,0.33c-0.122-0.129-0.265-0.292-0.371-0.437
		c-2.204-0.142-4.771-0.017-7.016-0.018c-1.18,0-2.364-0.01-3.543-0.002c-0.821,0.005-0.688,0.313-1.415,0.059
		c-0.207-0.072-0.972-0.018-1.182,0.078c-0.432,0.197-0.116-0.059-0.271,0.341c0.521,0.203,0.643-0.016,0.979,0.123
		c0.026,0.011,0.095,0.061,0.118,0.074l0.136,0.089c0.876-0.213,0.606-0.1,1.544-0.104l5.722-0.001
		c0.583,0.252-0.295,0.578,1.544,0.572c2.114-0.007,4.856,0.065,6.812-0.017c0.126-0.265,0.216-0.48,0.622-0.439
		c0.373,0.036,0.513,0.35,0.595,0.597c-0.042,0.516-0.312,0.562-0.715,0.806c-0.467,0.284-0.452,0.411-0.801,0.794
		c-0.42,0.462-0.378,0.448-0.374,1.271c0.003,0.592,0.028,1.116-0.001,1.688c0.211,0.121,0.324,0.233,0.459,0.338
		c0.008,0.389,0.054,0.542-0.168,0.822c-0.511,0.645-1.723-0.369-0.679-1.126c0.134-1.969-0.407-2.303,0.584-3.377
		c0.282-0.306,0.486-0.373,0.49-0.833c-0.712-0.208-7.232,0.066-7.825-0.087c-0.375-0.097-0.362-0.274-0.636-0.527l-5.908-0.019
		c-0.376,0.011-0.443,0.106-0.813,0.12c-0.025-0.012-0.063-0.062-0.075-0.04l-0.19-0.107c-0.188-0.072-0.547,0.036-1.062,0.06
		l-0.317-0.049l-0.051-0.44c-0.068-0.242-0.094-0.088-0.121-0.537c1.239-0.502,1.827-0.096,2.089-0.096
		c-0.033,0.027-0.126,0.349-0.231-0.084c-0.125-0.521-0.107-0.305,0.231-0.394c-0.131,0.198-0.428,0.264-0.727,0.286l-0.159-0.082
		c-0.428-0.223-0.349-0.065-0.755-0.105l-0.357-0.099c-0.035-0.098-0.152,0.203-0.072-0.303c0.074-0.463,0.346-0.291,0.866-0.372
		c0.081-0.012,0.85-0.44,0.941,0.101c-0.014-0.03-0.042-0.096-0.046-0.087c-0.005,0.01-0.03-0.072-0.035-0.106
		c-0.05-0.345,0.012,0.307-0.021-0.284h0.454c-0.004,0.006,0.02,0.243-0.092-0.001c-0.117,0.061-0.4,0.324-0.993,0.125
		c-0.455-0.153,0.167-0.09-0.271-0.049c-0.389,0.037-0.222,0.057-0.556-0.038c-0.026-0.007-0.057-0.024-0.085-0.037
		c-0.013-0.033-0.037-0.111-0.039-0.099s-0.03-0.069-0.03-0.099c0-0.174-0.085-0.042,0.037-0.284
		c0.077-0.151,0.213-0.182,0.333-0.216c0.431-0.124,1.494,0.028,1.698,0.028v0.095c-0.73-0.05-0.286,0.069-0.454-0.286
		c0.079-0.069,0.256-0.448,0.73,0.011c0.239,0.231-0.305-0.043,0.087,0.085c0.431,0.069,6.083-0.075,6.637-0.014
		C44.587,21.26,44.305,21.227,44.456,21.403L44.456,21.403z"/>
	<path fill-rule="evenodd" clip-rule="evenodd" fill="#EDEDED" d="M20.562,21.438c0.049-0.011,0.228-0.081,0.245-0.08
		c0.023,0.001,0.05-0.002,0.075,0.002l0.265,0.14c-0.06,0.448,0.075,0.372-0.346,0.471c-0.096,0.022-0.442,0.007-0.562,0.007
		c0.269-0.242,0.768,0.129,0.502,0.39c0.41,0.089,0.729,0.341,0.364,0.731c-0.298,0.319,0.226-0.18-0.128,0.087
		c-0.123,0.093-0.161-0.06-0.161,0.133c0,0.165,0.163,0.086,0.418,0.196l0.005,0.663c-0.575,0.228-0.523,0.109-0.309,0.285
		c0.202,0.164,0.308-0.233,0.308,0.863c-0.312,0-0.92-0.111-1.036-0.082c-0.105,0.027-0.516,0.336-0.871,0.082l0.002,0.37
		l-0.49,0.015l-3.214-0.05c-0.73,0.976-2.22,3.622-2.747,4.21l-2.235,0.018c-0.123,0.168-0.182,0.363-0.451,0.438
		c-0.281,0.079-0.528-0.071-0.646-0.237c-0.415-0.58,0.048-1.11,0.699-1.068l0.419,0.434l2.077,0.02
		c0.441-0.697,0.79-1.301,1.333-2.132c1.839-2.816,0.76-2.069,4.429-2.165c0.328-0.008,1.204,0.088,1.269,0.076
		c0.273-0.052,0.205-0.166,0.553-0.168c0.282-0.002,0.449,0.09,0.796,0.116c-0.055-0.983-0.116-0.446-0.663-0.511
		c-0.784-0.092-0.347-0.349-1.046-0.065c-0.223,0.09-1.7-0.021-2.172-0.023c-0.816-0.005-1.642-0.015-2.457-0.009
		c-0.987,0.007-0.758,1-1.667,0.027l-0.01-0.538c0.398-0.426,0.189-0.335,0.864-0.352l0.34,0.368
		c0.096,0.047,3.711,0.076,4.292,0.02c0.511-0.049,0.44-0.001,0.912,0.027c0.459,0.027,0.395-0.09,0.732-0.12
		c0.359-0.031,0.456,0.133,0.771,0.01c0.069-0.235,0.029-0.378-0.137-0.394c-0.57-0.054-0.39,0.087-1.188-0.296l-0.496,0.286
		c-0.325,0.084-0.378-0.074-0.603-0.129c-0.279-0.068-6.898-0.023-7.712-0.024c-0.515,0-1.03,0.004-1.544,0
		c-0.887-0.006-0.648,0.028-1.214,0.376c-0.083,1.08-0.708,1.428-1.282,0.568c-1.943-0.036-2.374,0.319-2.395-0.523
		c-0.006-0.243,0.012-0.426-0.002-0.678l-0.407-0.482C3.75,22.02,4.879,21.384,5.233,22.2c0.221,0.508-0.054,0.752-0.383,0.883
		l0.015,0.93l1.974,0.025c0.405-0.587,0.384-0.465,1.081-0.411c0.716-0.79,0.901-0.557,2.782-0.557c2.527,0,5.858,0.081,8.287-0.081
		c0.536-0.036,0.725,0.405,1.087-0.1c0.077,0,0.393,0.024,0.443,0.022c0.188-0.008-0.09,0.13,0.279-0.07
		c-0.141-0.322-0.363-0.213-1.104-0.543l-0.142,0.083c-0.777,0.454-0.606,0.139-0.945,0.055c-0.505-0.126-9.356,0.107-10.91-0.013
		c-0.331-0.026-0.392-0.032-0.423-0.434c-0.011-0.147,0.004-0.42,0.004-0.583c0.005-1.758-0.214-1.03-0.407-1.594
		c-0.289-0.842,0.856-1.153,1.181-0.501c0.135,0.489-0.001,0.658-0.376,0.89l-0.01,1.805l9.213,0.002
		c0.473,0,1.098,0.038,1.551,0.003c0.757-0.057,0.204-0.374,1.265,0.129c0.201-0.093,0.079-0.021,0.22-0.107
		c0.211-0.129,0.011-0.03,0.163-0.117c0.225-0.127,0.199-0.087,0.479-0.116L20.562,21.438L20.562,21.438z"/>
	<path fill-rule="evenodd" clip-rule="evenodd" fill="#EDEDED" d="M35.444,28.917c-0.212-0.016-0.115,0.004-0.285-0.048
		c-0.02-0.006-0.053-0.011-0.067-0.043c-0.014-0.032-0.039-0.036-0.058-0.053c0.002-0.04-0.227-0.575,0.701-0.288
		c-0.427,0-0.54,0.036-0.872-0.096c0.009-0.297-0.029-0.149,0.052-0.392c0.14-0.415,0.203,0.295,0.155-0.306
		c-0.029-0.358-0.111-0.465-0.115-0.928c0.553,0.02-0.324-0.059,0.222-0.5c0.583-0.124,0.89,0.087,1.274,0.03l4.316,0.011
		c0.33,0.077,1.435,1.601,1.67,1.938c0.875,0.054,0.485-0.21,1.146-0.462c0.335,0.125,0.501,0.232,0.681,0.609
		c0.04,0.312-0.677,1.405-1.309,0.284c-0.696-0.044-0.592,0.12-1.371-0.947c-0.26-0.356-0.524-0.652-0.774-0.995
		c-1.015-0.034-2.115-0.027-3.133-0.015c-0.578,0.007-0.413,0.08-0.655,0.122c-0.307,0.054-0.451-0.114-0.706-0.13l-1,0.124
		c-0.415,0.162-0.127-0.031-0.238,0.313c0.025,0.018,0.058,0.016,0.075,0.054c0.061,0.134,0.068,0.056,0.161,0.075l0.836,0.09
		c0.474,0.09,0.425-0.162,1.017-0.047c1.772,0.344,2.553-0.402,3.184,0.458c0.178,0.243,0.358,0.457,0.532,0.683
		c1.426,1.851,0.595,1.409,4.245,1.42c0.515,0.001,1.029-0.005,1.544-0.002c1.991,0.014,0.079-0.346,1.726-0.41
		c0.093,0.111,0.185,0.196,0.33,0.274c0.016,0.855-0.028,1.04-0.865,0.999l-0.374-0.385l-5.541-0.014
		c-0.168-0.06-1.361-1.672-1.697-2.071c-0.561-0.665-0.508-0.479-2.027-0.483c-0.916-0.002-0.503-0.07-1.155,0.136
		c-0.352,0.111-0.878-0.174-1.654-0.034c-0.667,0.121-0.313,0.047-0.42,0.376c0.471,0.195,0.61,0.001,0.982,0.123l0.34,0.161
		c0.512-0.147,0.279-0.252,0.912-0.139c0.377,0.068,0.871,0.026,1.268,0.041l2.833,4.127c0.367,0.643,0.21,4.048,0.21,5.285
		c-0.001,2.209,0.222,1.797-1.952,1.791c-0.665-0.002-1.35-0.057-1.999,0.078c-0.389,0.207-0.26,0.426-0.908,0.371
		c-0.393-0.207-0.838-1.271,0.437-1.33l0.432,0.447l3.512,0.025c0.092-0.746,0.125-6.079-0.068-6.498
		c-0.216-0.466-2.498-3.541-2.64-3.907C36.083,28.846,38.368,29.167,35.444,28.917L35.444,28.917z"/>
	<path fill-rule="evenodd" clip-rule="evenodd" fill="#EDEDED" d="M8.158,26.8c0.563,0.017,2.937,0.205,3.303-0.189
		c0.068-0.073-0.015-0.183,0.337-0.261c0.526-0.117,0.867,0.431,0.741,0.886c-0.083,0.299-0.355,0.417-0.656,0.5
		c-0.327-0.177-0.43-0.379-0.589-0.428c-0.124-0.038-2.395,0.004-3.183-0.107c-0.22,0.396-0.077,0.223-0.438,0.454l0,5.63
		l7.312-0.242l0.027-2.447c0.363-0.254,0.828-1.243,1.107-1.658c0.117-0.174,1.102-1.518,1.213-1.556l0.999-0.004
		c0.341,0,0.665-0.171,0.958-0.081c0.407,0.125,0.285,0.173,0.284,0.593c-1.101,0.218-1.796-0.693-2.514,0.414l-1.437,2.115
		c-0.612,0.928,0.103,2.386-0.351,3.072c-1.285,0.081-2.673,0.083-3.934,0.111c-0.777,0.018-3.421,0.345-3.981,0.037
		c-0.207-0.214,0.036-5.301-0.099-5.818c-0.097-0.369-0.47-0.348-0.42-0.848c0.03-0.297,0.327-0.621,0.598-0.631
		C7.723,26.331,7.925,26.592,8.158,26.8L8.158,26.8z"/>
	<path fill-rule="evenodd" clip-rule="evenodd" fill="#EDEDED" d="M29.299,32.696c0.002-0.341-0.147-0.481-0.094-0.821
		c0.019-0.124,0.167-0.4,0.135-0.582c-0.043-0.242-0.243-0.269-0.209-0.55c0.013-0.111,0.118-0.457,0.127-0.694
		c0.18,0.004,0.17,0,0.335,0.025c0.15,0.024,0.204,0.084,0.238,0.252l0.019,0.55c-0.053,0.369-0.028,0.074-0.323,0.544
		c0.38,0.26,0.382,0.381,0.241,1.006c-0.102,0.452-0.051,2.637-0.051,3.235c0,0.951-0.093,0.873,0.304,1.459
		c0.917,1.357,0.696,0.619,0.708,2.758c0.004,0.74,0.28,0.521,0.954,0.521l2.147-0.018l0.057-0.512
		c0.104-1.949-0.024-1.943-0.869-3.223c-0.215-0.324-0.268-0.445-0.467-0.746c-0.572-0.865-1.188-1.498-1.174-2.536
		c0.014-0.995-0.218-1.363-0.067-1.749c0.003-0.01,0.088-0.146,0.104-0.171l0.155-0.242c-0.293-0.073-0.303-0.039-0.32-0.417
		c-0.008-0.187-0.034-0.52,0.097-0.651c0.009-0.009,0.644-0.446,0.581,0.647c-0.045,0.784-0.288,0.046-0.048,1.017
		c0.062,0.255,0.005,0.412-0.048,0.587c-0.458,1.523,0.568,2.589,1.009,3.295c0.231,0.369,1.203,1.927,1.441,2.099l0.018,2.605
		l0.829,0.004c0.472-0.479,0.71-0.693,1.241-0.096c0.22,0.605-0.534,1.629-1.267,0.502l-4.245,0.002
		c-0.178-0.006-0.437,0.051-0.5-0.352c-0.078-0.494,0.167-1.916-0.163-2.451c-0.367-0.6-0.901-0.898-0.901-1.855L29.299,32.696
		L29.299,32.696z"/>
	<path fill-rule="evenodd" clip-rule="evenodd" fill="#EDEDED" d="M2.998,31.26c-0.557-0.61-0.615-0.782-0.083-1.395l0.532-0.002
		l0.389,0.44c0.033,0.712-0.083,0.563-0.419,0.957l-0.019,1.593c1.017,0.604,0.062,1.265,0.029,1.344
		c-0.061,0.801-0.149,3.434,0.045,4.01c0.297,0.146,0.49,0.092,0.872,0.09l2.543-0.002c0.334,0,3.151-0.104,3.34,0.066
		c0.358,0.432,0.033,4.516,0.084,5.438c0.039,0.693,0.709,1.295,1.014,1.727c0.157,0.223,0.967,1.299,1.157,1.441
		c-0.006,0.812,0.14,1.965-0.08,2.631c-0.336-0.088-0.335,0.236-0.316-0.633c0.055-2.529-0.099-1.67-1.008-3.17
		c-0.621-1.023-1.155-1.096-1.145-2.094l0.001-3.352c0-0.287-0.001-0.574,0.001-0.861c0.004-0.463,0.036-0.43-0.081-0.734
		c-0.419-0.176-4.561-0.074-5.148-0.076c-1.466-0.004-1.685,0.176-1.698-0.52l0.002-3.98c-0.979-0.596-0.019-1.328,0.001-1.387
		L2.998,31.26L2.998,31.26z"/>
	<path fill-rule="evenodd" clip-rule="evenodd" fill="#EDEDED" d="M25.35,31.26c-0.268-0.154-0.312-0.034-0.342-0.47
		c-0.026-0.384,0.095-0.566,0.226-0.734c0.413,0.012,0.451-0.053,0.505,0.373c0.034,0.269,0.012,0.48-0.081,0.714
		c-0.168,0.427,0.165,0.558,0.033,1.096c-0.099,0.404-0.074,0.028-0.083,0.358c-0.011,0.379,0.124,2.604-0.003,2.874
		c-0.081,0.17-3.887,3.121-4.325,3.482c-0.79,0.65-0.555,0.656-1.769,0.672c-2.019,0.023-3.886-0.01-5.922,0.08
		c-0.111,2.549-0.026,6.732-0.026,9.352c0,0.395,0.05,0.408-0.228,0.52c-0.434-0.508-0.177-2.23-0.151-2.91
		c0.034-0.881-0.079-1.881-0.074-2.775c0.002-0.395,0.055-0.662,0.057-1.053l-0.055-2.584c-0.003-0.965-0.035-1.018,0.858-1.018
		l5.451-0.006c1.118,0,1.139-0.16,1.811-0.697l1.285-1.041c3.223-2.516,2.663-1.633,2.673-4.414c0.001-0.19,0.013-0.386-0.022-0.573
		C24.948,31.329,25.041,32.07,25.35,31.26L25.35,31.26z"/>
	<path fill-rule="evenodd" clip-rule="evenodd" fill="#EDEDED" d="M28.108,30.974c-0.018-0.4,0.048-0.645,0.185-0.903l0.417,0.017
		c0.139,0.263,0.154,0.378,0.133,0.698c-0.021,0.315-0.013,0.206-0.146,0.397c-0.015,0.021-0.04,0.051-0.053,0.068l-0.117,0.175
		c0.568,0.39,0.135,0.764,0.135,1.366L28.66,38.15c0.005,1.016,0.127,0.719-1.311,1.746c-2.071,1.479-4.355,3.27-6.483,4.842
		c-0.569,0.422-0.718,0.268-1.899,0.268c-0.781,0-2.343-0.062-3.128,0.041c-0.337,1.234,0.193,3.518-0.212,4.701
		c-0.004-0.123-0.037-0.148-0.244-0.309l0.035-4.605l0.131-0.219c1.455-0.121,3.191,0.121,4.608-0.02
		c0.531-0.051,3.486-2.391,4.118-2.859l3.998-2.963c0.002-1.332,0.059-5.87-0.051-6.428c-0.111-0.566-0.024-0.503,0.146-1.125
		L28.108,30.974L28.108,30.974z"/>
	<path fill-rule="evenodd" clip-rule="evenodd" fill="#EDEDED" d="M24.173,31.277c-0.009-0.019-0.025-0.055-0.036-0.077
		c-0.01-0.021-0.025-0.047-0.036-0.07c-0.191-0.428-0.11-0.625,0.012-1.059l0.504,0.02c0.103,0.635,0.278,0.84-0.181,1.11
		c0.478,1.387,0.095,0.204,0.113,2.356c0.01,1.117-0.224,0.996-0.836,1.554l-2.6,2.334c-0.73,0.756-0.669,0.57-1.874,0.572h-4.814
		c-0.261,0-2.162-0.09-2.326,0.074c-0.167,0.166-0.081,4.172-0.081,4.172l0.155,0.174c0.015,0.016,0.037,0.031,0.052,0.047
		c0.316,0.33,0.262,0.324,0.264,0.818c-0.455,0.252-0.254,0.395-0.934,0.34c-0.244-0.217-0.396-0.4-0.321-0.803
		c0.101-0.539,0.376-0.086,0.418-0.768c0.003-0.766,0.001-1.531,0.001-2.297c0-1.592-0.296-2.148,0.493-2.166
		c2.11-0.049,5.167,0,7.275,0.012c0.314,0.002,0.729,0.051,0.977-0.055l3.454-3.064c0.084-0.084,0.069-0.062,0.147-0.145
		c0.192-0.202,0.214-1.321,0.178-1.664c-0.072-0.683-0.277-0.628,0.034-1.338C24.199,31.33,24.183,31.296,24.173,31.277
		L24.173,31.277z"/>
	<path fill-rule="evenodd" clip-rule="evenodd" fill="#EDEDED" d="M27.227,32.422c-0.072-0.263-0.211-0.151-0.112-0.632
		c0.069-0.335,0.153-0.29,0.24-0.546l-0.292-0.11l0.106-1.083l0.497,0c0.13,0.335,0.161,0.531,0.155,0.984l-0.253,0.227
		c0.052,0.171,0.204,0.429,0.217,0.669c0.02,0.37-0.108,0.33-0.134,0.759c-0.048,0.789,0.072,4.989-0.008,5.173
		c-0.063,0.146-7.19,5.242-7.353,5.311c-0.399,0.17-1.584,0.121-2.061,0.092c-0.609-0.037-1.065-0.031-1.807,0.029
		c-0.211,0.391-0.287,0.373-0.727,0.367c-0.526-0.406-0.609-0.699-0.157-1.256c0.599-0.07,0.69-0.115,0.913,0.377
		c0.848,0.033,3.296,0.189,3.89-0.107c0.219-0.109,0.396-0.27,0.607-0.414l0.544-0.391c0.397-0.285,0.716-0.535,1.128-0.82
		c0.7-0.482,4.343-2.969,4.577-3.316c0.104-0.213,0.064-0.635,0.064-0.922C27.263,36.083,27.315,32.741,27.227,32.422L27.227,32.422
		z"/>
	<path fill-rule="evenodd" clip-rule="evenodd" fill="#EDEDED" d="M22.107,32.857c-0.055-0.758-0.111-0.539-0.026-1.421
		c0.054-0.558-0.091-0.091-0.134-0.654C21.933,30.595,22,30.293,22,30.043l0.418,0.009c0.213,0.225,0.043-0.225,0.202,0.315
		c0.162,0.554-0.165,0.769-0.135,1.045c0.031,0.301,0.213,0.327,0.12,0.792c-0.07,0.35-0.12,0.257-0.147,0.777
		c-0.243,0.229-1.803,1.829-1.874,1.965l-9.789,0.005c-0.202,0.183-0.404,0.481-0.787,0.38c-0.3-0.078-0.451-0.323-0.534-0.723
		c0.321-0.63,0.897-0.808,1.318-0.169c0.569,0.038,9.23,0.115,9.659-0.011C20.81,34.325,21.673,33.194,22.107,32.857L22.107,32.857z
		"/>
	<path fill-rule="evenodd" clip-rule="evenodd" fill="#EDEDED" d="M56.345,25.371c0.94,0.002,1.47,0.812,0.548,1.325l-0.002,6
		l-1.36,1.388c-0.315,0.191-0.709-0.005-0.828-0.277c-0.23-0.526,0.152-0.767,0.324-0.961c0.989-0.067,0.543,0.702,1.469-0.341
		l0.012-5.798c-0.565-0.344-0.416-0.499-0.443-1.239c-0.374-0.273-0.373-0.369-0.543-0.771c-0.686-0.021-0.841-0.235-0.993-0.879
		c0.294-0.241,0.113-0.482,0.587-0.539c0.971-0.115,0.608,1.028,0.76,1.336C56.027,24.918,56.208,25.036,56.345,25.371
		L56.345,25.371z"/>
	<path fill-rule="evenodd" clip-rule="evenodd" fill="#EDEDED" d="M33.806,31.26c0.031,0.318,0.129,0.411,0.125,0.766
		c-0.006,0.503-0.154,0.33-0.029,0.816c0.035,0.137,0.523,1.151,0.679,1.212c0.11,0.044,3.492,0.131,3.772,0.002
		c0.401-0.185,0.055-0.416,0.87-0.354c0.625,0.306,0.198,0.886,0.406,1.536c0.23,0.717-0.006,0.425,0.922,1.11l0.003,0.538
		l-0.585,0.473c-1.257-0.369-0.234-0.926-0.722-1.997c-0.22-0.481-0.146-0.243-0.523-0.435c-0.113-0.059-0.304-0.193-0.343-0.367
		l-3.972-0.002c-0.361-0.5-0.488-0.862-0.784-1.411c-0.138-0.256-0.189-0.58-0.271-0.856c-0.103-0.349-0.01-0.633,0.12-0.936
		c-0.294-0.7-0.27-0.327-0.09-1.271C34.23,30.025,34.015,30.86,33.806,31.26L33.806,31.26z"/>
	<path fill-rule="evenodd" clip-rule="evenodd" fill="#EDEDED" d="M43.541,6.671c-0.118,0.345-0.097,0.424-0.456,0.678l-0.009,2.894
		c0.481,0.149,0.7,0.092,1.281,0.088c0.371-0.72,1.22-0.698,1.273,0.428c-0.125,0.101-0.635,0.993-1.272-0.003l-2.921-0.004
		c-0.247,0.455-0.639,0.637-0.997,0.288c-0.717-0.7,0.323-1.742,1.023-0.725c0.559,0.016,0.791,0.09,1.149-0.068l0.011-2.332
		c-0.005-0.929-0.037-0.425-0.305-0.955C41.945,6.221,43.122,5.372,43.541,6.671L43.541,6.671z"/>
	<path fill-rule="evenodd" clip-rule="evenodd" fill="#EDEDED" d="M8.215,36.104l-2.512,0.002c-0.42,0.004-0.629,0.082-0.688-0.346
		c-0.006-0.044-0.002-0.318-0.002-0.382L5.01,30.071c-0.873-0.493-0.211-1.118-0.122-1.261l0.624,0.006
		c0.501,0.609,0.43,0.574,0.021,1.211c-0.262,0.408-0.136,1.256-0.136,1.808c0,0.359-0.034,3.306,0.018,3.63
		c0.041,0.256,0.314,0.248,0.375,0.254c0.084,0.01,0.273-0.004,0.369-0.006l2.06-0.004c0.16-0.298,0.321-0.487,0.831-0.484
		c0.173,0.193,0.068,0.01,0.25,0.271C9.871,36.316,8.681,37.131,8.215,36.104L8.215,36.104z"/>
	<path fill-rule="evenodd" clip-rule="evenodd" fill="#EDEDED" d="M23.111,30.173l0.431,0c0.181,0.251,0.218,0.734-0.061,1.088
		c0.242,0.864,0.082,1.321,0.071,2.381c-0.21,0.1-2.207,1.944-2.48,2.23c-0.293,0.31-0.491,0.592-0.919,0.613
		c-0.68,0.035-2.557-0.227-2.984,0.162c-0.173,0.158-0.113,0.293-0.562,0.258c-0.203-0.016-0.355-0.096-0.453-0.279
		c-0.286-0.541,0.084-0.776,0.269-1.021c1.067,0.015,0.453,0.251,0.933,0.415c0.145,0.049,0.48-0.006,0.702-0.008
		c2.992-0.031,1.714,0.455,3.789-1.332c2.352-2.025,0.864-1.829,1.187-2.975l0.229-0.445c-0.316-0.168-0.259,0.003-0.28-0.477
		c0-0.011,0.006-0.356,0.007-0.361C23.026,30.207,23.031,30.25,23.111,30.173L23.111,30.173z"/>
	<path fill-rule="evenodd" clip-rule="evenodd" fill="#EDEDED" d="M55.901,20.533c-0.42,0.305-0.155,0.543-0.965,0.437l-0.358-0.366
		c-0.271-0.008-1.321-0.068-1.507-0.001c-0.276,0.099-0.448,0.725-1.022,0.295c-0.709-0.53,0.275-1.954,0.924-0.793l1.664,0.02
		c0.016-0.028,0.722-0.905,0.23-1.614c-0.825-1.188-1.113-0.578-1.293-0.592c-0.334-0.149-0.608-0.269-0.605-0.728
		c0.004-0.539,0.36-0.604,0.769-0.717c0.136,0.197,0.258,0.196,0.387,0.349c0.459,0.545-0.447-0.013,0.92,1.312
		c0.57,0.553,0.364,0.177,0.396,1.171C55.462,19.991,55.79,19.638,55.901,20.533L55.901,20.533z"/>
	<path fill-rule="evenodd" clip-rule="evenodd" fill="#EDEDED" d="M49.123,16.378l-3.094,0.002c-0.536,0.017-0.63,0.306-0.993,0.476
		C44.183,17,44.058,15.3,45.088,15.53c0.803,0.179-0.269,0.458,1.945,0.459l4.451-0.019c0.261-0.08,0.053-0.299,0.886-0.54
		c0.062,0.06,1.207,0.908,0.033,1.385c-0.222,0.091-0.368,0.005-0.528-0.13c-0.491-0.417-0.382-0.309-1.208-0.299
		C50.151,16.391,49.638,16.376,49.123,16.378L49.123,16.378z"/>
	<path fill-rule="evenodd" clip-rule="evenodd" fill="#EDEDED" d="M42.765,37.334c-0.435-0.211-0.952-0.713-0.38-1.214
		c0.522-0.458,0.825,0.05,1.107,0.353l1.027-0.035c0.212-0.32,1.373-1.932,1.552-2.062l-0.002-2.029
		c-0.363-0.286-0.759-0.772-0.14-1.196c0.564-0.386,0.985,0.257,0.972,0.576c-0.017,0.394-0.229,0.427-0.428,0.683
		c-0.036,0.545-0.002,1.088-0.01,1.632c-0.008,0.578-0.432,0.945-0.871,1.537c-1.513,2.039-0.46,1.096-2.083,1.375
		C43.224,37.002,43.11,37.203,42.765,37.334L42.765,37.334z"/>
	<path fill-rule="evenodd" clip-rule="evenodd" fill="#EDEDED" d="M32.747,31.26c0.066,0.239,0.157,0.291,0.178,0.59
		c0.054,0.743-0.497,0.819,0.238,1.961c0.362,0.561,2.175,3.675,2.531,3.828c0.419,0.18,0.808,0.266,0.704,0.875
		c-0.115,0.672-1.151,0.66-1.256-0.084c-0.03-0.213,0.066-0.322,0.018-0.619c-0.045-0.283-1.513-2.514-1.753-2.903
		c-0.788-1.274-0.836-1.056-0.966-2.222c-0.072-0.647-0.347-0.044-0.046-1.236c0.102-0.406,0.007-0.086-0.1-0.425
		c-0.071-0.228-0.03-0.482-0.011-0.721c0.001,0,0.682-0.995,0.635,0.774L32.747,31.26L32.747,31.26z"/>
	<path fill-rule="evenodd" clip-rule="evenodd" fill="#EDEDED" d="M30.3,32.605c-0.096-0.599,0.052-0.938,0.045-1.25
		c-0.011-0.5-0.412-1.16,0.257-1.298c0.051-0.011,0.186-0.006,0.238-0.007l0.057,0.923c-0.183,0.205-0.028,0.086-0.285,0.227
		l0.123,0.269c0.077,0.164,0.022-0.029,0.095,0.198c0.165,0.52-0.047,0.723-0.083,0.932c-0.023,0.131-0.014,0.339-0.013,0.479
		c0.003,0.67-0.007,1.342-0.004,2.012c0.005,1.064,0.868,1.441,1.4,2.6c0.719,0.07,1.029-0.076,1.152,0.748
		c-0.025,0.178-0.401,0.742-0.871,0.555c-0.551-0.221-0.151-0.602-1.016-1.775C29.472,34.606,30.752,35.41,30.3,32.605L30.3,32.605z
		"/>
	<path fill-rule="evenodd" clip-rule="evenodd" fill="#EDEDED" d="M20.826,28.434l-0.04,0.568c-0.566,0.083-0.832-0.276-1.323-0.072
		c-1.121,0.466-0.727-1.058-2.101,0.929c-1.143,1.651,0.208,1.093-0.146,2.526c-0.378,0.166-0.314,0.171-0.861,0.175
		c-0.724-1.079-0.004-1.021,0.17-1.491c0.032-0.933,0.123-0.826,0.547-1.427c1.125-1.596,0.559-1.081,1.825-1.264
		c0.386-0.055,0.354-0.06,0.659,0.144c0.199,0.132-0.123-0.026,0.137,0.092c0.306-0.257,0.28-0.322,0.839-0.278
		C20.873,28.362,20.736,28.292,20.826,28.434L20.826,28.434z"/>
	<path fill-rule="evenodd" clip-rule="evenodd" fill="#EDEDED" d="M52.553,33.231c0.158-0.485,0.497-0.401,0.978-0.396
		c0.244-0.527,0.549-1.02,0.872-1.567c0.728-1.233-0.198-0.909,0.548-1.79c0.744,0.021,0.53-0.064,0.952,0.277l-0.007,0.715
		c-0.196,0.097-0.186,0.164-0.313,0.229c-0.679,0.343-0.186-0.444-1.298,1.511c-0.563,0.991-0.521,0.729-0.573,1.613
		c-0.117,0.096-0.227,0.181-0.338,0.352l-0.503,0.003C52.678,33.894,52.386,33.743,52.553,33.231L52.553,33.231z"/>
	<path fill-rule="evenodd" clip-rule="evenodd" fill="#EDEDED" d="M53.392,30.731c-0.619,0.055-0.502-0.07-0.761,0.402l-0.828,1.429
		c-0.222,0.391-0.232,0.364-0.193,0.836c0.115,1.348-1.777,0.717-1.101-0.303c0.062-0.093,0.202-0.202,0.289-0.233
		c0.614-0.219,0.26,0.268,1.228-1.417c0.434-0.756,0.443-0.569,0.503-1.601c0.248-0.306,0.616-0.688,1.049-0.214
		C54.037,30.133,53.601,30.48,53.392,30.731L53.392,30.731z"/>
	<path fill-rule="evenodd" clip-rule="evenodd" fill="#EDEDED" d="M44.098,33.965c0.292,0.408-0.024,0.843-0.212,0.958
		c-0.638,0.388-1.094-0.444-0.889-0.889c0.52-0.52,0.39-0.849,0.347-1.722c-0.833-0.581-0.16-1.071-0.016-1.29l0.508-0.005
		c0.196,0.305,0.785,0.688-0.029,1.391C43.82,34.151,43.755,33.488,44.098,33.965L44.098,33.965z"/>
	<path fill-rule="evenodd" clip-rule="evenodd" fill="#EDEDED" d="M3.833,28.582c-0.49,0.522-0.281,0.42-0.852,0.444
		c-0.167-0.199-0.522-0.387-0.383-0.864c0.114-0.389,0.444-0.45,0.882-0.484c0.148-0.306,0.52-0.806,0.55-1.12
		c0.102-1.071-0.168-0.356,0.335-1.183c1.25-0.011,0.956,0.868,0.802,1.103c-0.37,0.57-0.434-0.342-1.157,0.999
		C3.653,28.137,3.868,27.915,3.833,28.582L3.833,28.582z"/>
	<g>
		<path fill="#009FE3" d="M80.542,15.957l0.327,0.298c-0.227,0.433-0.427,0.875-0.601,1.325c-1.01,0.528-1.984,0.902-2.92,1.123
			s-2.014,0.331-3.233,0.331c-2.282,0-4.211-0.398-5.788-1.194c-1.577-0.796-2.79-1.917-3.639-3.363
			c-0.849-1.445-1.273-3.103-1.273-4.973c0-2.692,0.96-4.897,2.88-6.615s4.57-2.578,7.95-2.578c1.124,0,2.236,0.1,3.338,0.299
			c1.102,0.199,2.197,0.502,3.286,0.909l0.091,0.195C80.8,2.18,80.689,2.63,80.626,3.063c-0.116,0.753-0.205,1.688-0.267,2.804
			h-1.098C79.21,4.5,79.158,3.75,79.105,3.615s-0.292-0.364-0.718-0.688c-0.426-0.324-1.003-0.588-1.729-0.792
			c-0.727-0.203-1.529-0.305-2.408-0.305c-2.088,0-3.748,0.641-4.979,1.922c-1.231,1.281-1.847,3.064-1.847,5.35
			c0,2.476,0.74,4.479,2.221,6.012c1.368,1.42,3.245,2.129,5.631,2.129c0.923,0,1.788-0.095,2.593-0.286
			S79.567,16.433,80.542,15.957z"/>
		<path fill="#009FE3" d="M82.516,17.593c0.818-0.043,1.324-0.125,1.515-0.247c0.131-0.086,0.335-0.416,0.614-0.987
			c0.531-1.125,1.21-2.688,2.038-4.688l4.625-11.257h1.92l5.905,13.945c0.766,1.76,1.239,2.724,1.417,2.892
			c0.178,0.168,0.729,0.282,1.653,0.341v1.182c-1.419-0.061-2.76-0.091-4.022-0.091c-1.506,0-2.938,0.03-4.297,0.091v-1.182
			c1.037-0.042,1.635-0.099,1.796-0.171c0.161-0.072,0.242-0.201,0.242-0.387c0-0.161-0.183-0.71-0.548-1.649l-0.862-2.168
			c-1.082-0.026-2.29-0.039-3.624-0.039c-1.16,0-2.215,0.013-3.166,0.039l-0.574,1.458c-0.157,0.397-0.348,0.989-0.574,1.776
			c-0.052,0.177-0.079,0.338-0.079,0.481c0,0.195,0.084,0.332,0.254,0.413c0.17,0.08,0.781,0.163,1.835,0.247v1.182
			c-0.854-0.061-1.916-0.091-3.186-0.091c-1.209,0-2.171,0.03-2.884,0.091V17.593z M91.087,4.994l-2.757,6.678
			c0.801,0.043,1.686,0.065,2.653,0.065c1.011,0,1.978-0.021,2.902-0.065L91.087,4.994z"/>
		<path fill="#009FE3" d="M103.34,18.774v-1.091l0.78-0.052c0.632-0.035,1.028-0.143,1.188-0.325
			c0.16-0.182,0.253-0.796,0.279-1.844c0.061-2.136,0.091-4.449,0.091-6.94c0-1.323-0.007-2.828-0.02-4.515
			c-0.013-1.021-0.072-1.643-0.177-1.868c-0.052-0.113-0.148-0.204-0.287-0.272c-0.14-0.069-0.758-0.143-1.855-0.221V0.557
			c1.053,0.026,2.083,0.039,3.092,0.039c1.174,0,2.305-0.013,3.392-0.039c0.47,1.099,0.958,2.188,1.464,3.27
			c0.357,0.77,1.938,4.035,4.744,9.796c2.965-5.917,5.041-10.272,6.228-13.066c1.041,0.043,2.031,0.065,2.971,0.065
			c1.104,0,2.168-0.021,3.193-0.065v1.091c-1.141,0.069-1.785,0.169-1.934,0.299s-0.244,0.528-0.287,1.194
			c-0.061,1.09-0.092,3.161-0.092,6.214c0,1.54,0.016,3.165,0.045,4.877c0.031,1.712,0.09,2.681,0.178,2.906
			c0.061,0.129,0.146,0.229,0.26,0.298s0.725,0.152,1.83,0.247v1.091c-1.41-0.061-2.67-0.091-3.775-0.091
			c-1.115,0-2.631,0.03-4.547,0.091v-1.091l0.771-0.026c0.609-0.026,0.99-0.11,1.143-0.253c0.152-0.143,0.25-0.52,0.293-1.13
			c0.045-0.61,0.066-2.048,0.066-4.314V4.125c-1.344,2.675-3.057,6.182-5.141,10.519c-0.855,1.784-1.522,3.238-2.001,4.364h-0.859
			c-0.654-1.489-1.53-3.372-2.629-5.649l-4.525-9.233V5.89c0,4.878,0.021,8.238,0.065,10.08c0.026,0.745,0.126,1.204,0.3,1.376
			c0.174,0.173,0.823,0.286,1.947,0.337v1.091c-0.887-0.061-1.773-0.091-2.66-0.091C105.552,18.684,104.375,18.714,103.34,18.774z"
			/>
		<path fill="#009FE3" d="M131.272,18.774v-0.61c0.496-0.294,0.875-0.562,1.137-0.805c0.104-1.195,0.156-3.835,0.156-7.921
			c0-2.96-0.043-5.055-0.131-6.284c-0.043-0.667-0.135-1.056-0.273-1.169c-0.191-0.173-0.854-0.286-1.986-0.337V0.557l2.508,0.052
			l1.922,0.039c0.582,0,1.445-0.015,2.586-0.045c1.105-0.03,1.898-0.045,2.377-0.045c1.934,0,3.318,0.321,4.156,0.963
			c0.836,0.642,1.254,1.518,1.254,2.629c0,1.146-0.414,2.081-1.24,2.804c-0.826,0.724-1.99,1.241-3.496,1.551v0.104
			c1.549,0.156,2.637,0.39,3.262,0.702c0.627,0.312,1.131,0.797,1.514,1.457c0.383,0.659,0.574,1.408,0.574,2.249
			c0,1.031-0.316,2.006-0.947,2.925c-0.631,0.918-1.467,1.621-2.508,2.106s-2.506,0.728-4.396,0.728
			c-0.375,0-0.936-0.015-1.686-0.045c-0.697-0.03-1.268-0.045-1.711-0.045C133.847,18.684,132.823,18.714,131.272,18.774z
			 M136.288,8.062h0.68c1.473,0,2.506-0.264,3.104-0.792c0.596-0.528,0.895-1.354,0.895-2.48c0-0.987-0.242-1.714-0.725-2.181
			c-0.484-0.468-1.279-0.701-2.385-0.701c-0.408,0-0.91,0.035-1.502,0.104c-0.053,2.657-0.078,4.285-0.078,4.882L136.288,8.062z
			 M136.329,17.294c0.504,0.13,0.977,0.195,1.42,0.195c1.232,0,2.18-0.353,2.84-1.059c0.66-0.705,0.992-1.742,0.992-3.11
			c0-0.891-0.15-1.621-0.451-2.188c-0.299-0.567-0.711-0.989-1.238-1.266c-0.525-0.277-1.273-0.416-2.248-0.416l-1.314,0.013v0.337
			l-0.027,3.363l0.027,3.402V17.294z"/>
		<path fill="#009FE3" d="M148.048,18.774v-1.091c1.01-0.086,1.59-0.168,1.738-0.247c0.096-0.052,0.164-0.134,0.209-0.247
			c0.086-0.208,0.146-0.909,0.182-2.104c0.043-1.853,0.066-3.311,0.066-4.376c0-1.437-0.018-3.263-0.053-5.479
			c-0.035-1.653-0.117-2.666-0.248-3.038c-0.035-0.112-0.105-0.199-0.209-0.26c-0.141-0.086-0.701-0.182-1.686-0.286V0.557
			c1.803,0.061,2.965,0.091,3.488,0.091l6.545-0.091c1.42,0,2.453,0.136,3.104,0.409c0.648,0.272,1.162,0.708,1.541,1.31
			c0.379,0.601,0.568,1.307,0.568,2.12c0,1.037-0.303,1.947-0.908,2.729s-1.656,1.476-3.154,2.081l2.783,4.168l2.168,3.194
			c0.408,0.52,0.715,0.833,0.914,0.941c0.201,0.108,0.527,0.167,0.98,0.175v1l-0.771,0.013c-2.213,0.017-3.637,0.043-4.271,0.078
			c-0.758-1.203-1.891-2.947-3.396-5.233l-2.691-4.064c0.078-0.147,0.143-0.303,0.195-0.467c0.348,0.043,0.605,0.065,0.771,0.065
			c0.809,0,1.605-0.325,2.391-0.976c0.783-0.651,1.176-1.579,1.176-2.784c0-1.049-0.311-1.864-0.93-2.445
			c-0.621-0.581-1.551-0.872-2.791-0.872c-0.393,0-0.924,0.03-1.598,0.091l-0.086,3.833l-0.109,4.86
			c0,1.101,0.043,2.508,0.131,4.224c0.068,1.291,0.137,2.014,0.207,2.17c0.053,0.113,0.146,0.204,0.285,0.273
			c0.182,0.104,0.771,0.182,1.768,0.234v1.091c-1.564-0.061-2.951-0.091-4.16-0.091C150.909,18.684,149.526,18.714,148.048,18.774z"
			/>
		<path fill="#009FE3" d="M167.37,18.774v-1.091c1.195-0.06,1.871-0.16,2.025-0.298c0.156-0.139,0.252-0.48,0.287-1.026
			c0.068-1.143,0.104-3.272,0.104-6.388c0-1.195-0.018-2.926-0.051-5.194c-0.018-1.549-0.053-2.4-0.105-2.552
			c-0.053-0.151-0.145-0.262-0.273-0.331c-0.193-0.095-0.854-0.177-1.986-0.247V0.557c1.793,0.061,3.166,0.091,4.115,0.091
			c1.637,0,3.117-0.03,4.441-0.091v1.091c-1.191,0.069-1.863,0.162-2.016,0.279c-0.154,0.117-0.252,0.387-0.297,0.812
			c-0.068,0.831-0.104,2.515-0.104,5.051c0,3.376,0.012,5.729,0.039,7.057c0.025,1.329,0.104,2.119,0.234,2.37
			c0.053,0.113,0.164,0.201,0.334,0.266s0.771,0.132,1.809,0.201v1.091l-1.541-0.039c-0.977-0.035-1.848-0.052-2.613-0.052
			L167.37,18.774z"/>
		<path fill="#009FE3" d="M178.698,18.774v-0.675c0.6-0.346,1.027-0.605,1.279-0.778c0.123-1.522,0.184-4.372,0.184-8.55
			c0-1.808-0.02-3.319-0.059-4.534s-0.098-1.909-0.178-2.083c-0.033-0.086-0.09-0.151-0.17-0.194
			c-0.129-0.069-0.77-0.173-1.92-0.312V0.557c1.314,0.043,2.826,0.065,4.533,0.065l6.441-0.065c2.344,0,4.121,0.294,5.336,0.883
			c1.217,0.588,2.18,1.489,2.895,2.701s1.072,2.684,1.072,4.415c0,2.225-0.559,4.142-1.674,5.752
			c-1.113,1.61-2.473,2.757-4.076,3.441c-1.602,0.684-3.312,1.026-5.133,1.026l-4.953-0.091
			C181.485,18.684,180.292,18.714,178.698,18.774z M183.989,17.165c0.73,0.13,1.48,0.195,2.246,0.195
			c1.943,0,3.424-0.277,4.443-0.831c1.018-0.553,1.844-1.459,2.475-2.718s0.947-2.805,0.947-4.638c0-2.413-0.627-4.251-1.881-5.514
			c-1.107-1.125-2.914-1.687-5.422-1.687c-0.541,0-1.477,0.043-2.809,0.13l-0.105,8.088
			C183.884,13.596,183.919,15.92,183.989,17.165z"/>
		<path fill="#009FE3" d="M212.183,12.386v-1.052c1.584,0.043,3,0.065,4.246,0.065c1.148,0,2.391-0.021,3.723-0.065v0.831
			c-0.383,0.121-0.75,0.264-1.098,0.429c-0.104,0.875-0.156,1.619-0.156,2.234c0,0.441,0.053,1.316,0.156,2.624
			c-1.725,0.618-3.168,1.036-4.33,1.254c-1.164,0.219-2.367,0.328-3.613,0.328c-3.361,0-5.994-0.868-7.896-2.604
			c-1.904-1.735-2.855-3.984-2.855-6.745c0-2.839,0.971-5.112,2.914-6.817c1.941-1.706,4.729-2.558,8.361-2.558
			c1.279,0,2.508,0.1,3.684,0.299s2.295,0.502,3.357,0.909l0.117,0.195c-0.252,1.1-0.439,2.467-0.561,4.103h-1.098
			c-0.01-0.822-0.066-1.549-0.17-2.181c-0.559-0.641-1.273-1.121-2.148-1.441c-0.877-0.32-1.91-0.48-3.104-0.48
			c-2.238,0-4.021,0.676-5.35,2.027s-1.992,3.201-1.992,5.549c0,2.504,0.697,4.521,2.096,6.049s3.121,2.293,5.168,2.293
			c1.088,0,2.246-0.264,3.475-0.792c0.07-0.667,0.105-1.298,0.105-1.896c0-1.333-0.08-2.068-0.236-2.207
			S213.89,12.481,212.183,12.386z"/>
		<path fill="#009FE3" d="M223.222,18.774v-0.701c0.461-0.208,0.883-0.45,1.268-0.727c0.174-1.351,0.26-4.189,0.26-8.518
			c0-2.952-0.029-4.908-0.09-5.869c-0.027-0.511-0.117-0.833-0.268-0.967c-0.154-0.134-0.801-0.249-1.941-0.344V0.557
			c2.055,0.078,3.678,0.117,4.869,0.117l7.191-0.117c0.758,0,1.441,0.031,2.049,0.092l0.092,0.144
			c-0.191,0.953-0.33,2.22-0.418,3.802h-1.031c-0.045-1.264-0.094-1.939-0.15-2.025s-0.256-0.169-0.596-0.247
			c-0.723-0.156-1.828-0.234-3.318-0.234c-0.73,0-1.584,0.03-2.561,0.091c-0.113,2.675-0.178,4.804-0.195,6.389
			c0.932,0.061,1.807,0.091,2.627,0.091c1.209,0,1.938-0.039,2.182-0.117c0.146-0.052,0.252-0.177,0.312-0.376
			c0.053-0.156,0.113-0.701,0.184-1.636h1.123c-0.043,1.466-0.064,2.42-0.064,2.863l0.064,2.928h-1.123
			c-0.061-1.14-0.141-1.798-0.236-1.972c-0.051-0.104-0.17-0.178-0.352-0.222c-0.436-0.096-1.416-0.144-2.939-0.144
			c-0.48,0-1.041,0.031-1.686,0.091c-0.018,0.458-0.027,0.923-0.027,1.397c0,2.467,0.045,4.364,0.131,5.692l2.592,0.039
			c1.475,0,2.824-0.078,4.045-0.233c0.219-0.8,0.428-1.709,0.629-2.727h1.084c-0.201,1.542-0.318,3.022-0.354,4.441
			c-0.793,0.061-1.555,0.091-2.285,0.091c-0.48,0-1.426-0.015-2.836-0.045c-1.314-0.03-2.525-0.045-3.633-0.045
			C226.366,18.684,224.833,18.714,223.222,18.774z"/>
	</g>
	<g>
		<path fill="#E8E7E7" d="M82.676,49.799L68.143,28.616v16.417c0,1.549,0.119,2.469,0.357,2.759c0.238,0.291,1.024,0.487,2.357,0.59
			l0.293,0.017v1.06h-7.526v-1.06l0.292-0.017c1.333-0.103,2.118-0.299,2.357-0.59c0.238-0.29,0.357-1.21,0.357-2.759V28.599
			c0-1.553-0.119-2.473-0.355-2.762c-0.237-0.289-1.019-0.479-2.344-0.569l-0.307-0.034v-1.059h5.445l13.345,19.629V28.599
			c0-1.541-0.122-2.459-0.366-2.753c-0.244-0.295-1.027-0.487-2.349-0.578l-0.292-0.034v-1.059H86.9v1.059l-0.309,0.034
			c-1.322,0.091-2.102,0.283-2.34,0.578c-0.239,0.294-0.358,1.212-0.358,2.753v21.2H82.676z"/>
		<path fill="#E8E7E7" d="M103.854,48.62c-2.037,0.843-3.896,1.264-5.575,1.264c-2.59,0-4.695-0.917-6.315-2.753
			c-1.62-1.835-2.43-4.217-2.43-7.146c0-2.781,0.726-5.061,2.178-6.839c1.452-1.778,3.316-2.667,5.592-2.667
			c2.102,0,3.719,0.745,4.852,2.234c1.132,1.489,1.698,3.615,1.698,6.376v0.324H93.077c0,2.893,0.479,5.076,1.438,6.552
			c0.959,1.475,2.381,2.212,4.267,2.212c1.983,0,3.674-0.427,5.071-1.281V48.62z M93.142,38.37h7.314l0.016-0.752
			c0-2.152-0.266-3.707-0.796-4.664c-0.531-0.957-1.398-1.435-2.601-1.435c-1.203,0-2.159,0.621-2.869,1.862
			S93.142,36.286,93.142,38.37z"/>
		<path fill="#E8E7E7" d="M119.799,49.457v-3.485c-0.812,1.299-1.747,2.275-2.804,2.93c-1.057,0.655-2.241,0.982-3.552,0.982
			c-1.517,0-2.709-0.529-3.576-1.589c-0.867-1.047-1.3-2.488-1.3-4.321v-8.645c0-1.537-0.122-2.454-0.366-2.75
			c-0.244-0.296-1.022-0.496-2.333-0.598l-0.309-0.017v-1.059h6.209v12.539c0,1.424,0.241,2.492,0.724,3.203
			c0.482,0.712,1.205,1.068,2.17,1.068c0.888,0,1.761-0.239,2.617-0.718c0.855-0.479,1.696-1.196,2.519-2.152v-9.516
			c-0.076-1.697-0.201-2.653-0.374-2.87c-0.174-0.216-0.954-0.376-2.341-0.479l-0.292-0.017v-1.059h6.21v14.127
			c0.074,1.697,0.199,2.654,0.371,2.87c0.172,0.217,0.949,0.376,2.328,0.479l0.307,0.017v1.06H119.799z"/>
		<path fill="#E8E7E7" d="M133.421,35.961v9.071c0,1.538,0.127,2.46,0.381,2.768c0.256,0.308,1.033,0.501,2.334,0.581l0.697,0.017
			v1.06h-9.621v-1.06l0.309-0.017c1.311-0.091,2.088-0.287,2.332-0.59c0.244-0.301,0.365-1.221,0.365-2.759v-9.703
			c0-1.537-0.121-2.454-0.365-2.75c-0.244-0.296-1.021-0.496-2.332-0.598l-0.309-0.017v-1.059h6.209v3.485
			c1.463-2.608,3.375-3.912,5.738-3.912c0.324,0,0.688,0.063,1.088,0.188v5.074h-1.805l-0.016-0.308
			c-0.119-1.059-0.225-1.688-0.316-1.888c-0.092-0.199-0.34-0.299-0.74-0.299C135.767,33.245,134.45,34.15,133.421,35.961z"/>
		<path fill="#E8E7E7" d="M151.284,49.884c-2.6,0-4.654-0.869-6.16-2.607c-1.506-1.737-2.26-4.105-2.26-7.104
			c0-2.997,0.754-5.363,2.26-7.095c1.506-1.732,3.561-2.599,6.16-2.599c2.611,0,4.668,0.867,6.168,2.599
			c1.502,1.732,2.252,4.098,2.252,7.095c0,2.999-0.754,5.367-2.26,7.104C155.938,49.015,153.886,49.884,151.284,49.884z
			 M151.276,48.842c1.443,0,2.643-0.818,3.598-2.456s1.434-3.706,1.434-6.205c0-2.476-0.479-4.538-1.434-6.188
			c-0.955-1.649-2.154-2.474-3.598-2.474c-1.434,0-2.627,0.825-3.582,2.474c-0.955,1.649-1.432,3.712-1.432,6.188
			c0,2.499,0.475,4.567,1.424,6.205S149.833,48.842,151.276,48.842z"/>
		<path fill="#E8E7E7" d="M170.626,25.541h-3.836c-0.898,0-1.684,0.051-2.355,0.154c-0.445,0.068-0.668,0.49-0.668,1.264
			c0,0.581-0.01,1.082-0.031,1.503l-0.018,0.342h-1.705v-4.63h20.643v4.63h-1.707l-0.016-0.342
			c-0.033-0.421-0.049-0.922-0.049-1.503c0-0.774-0.217-1.196-0.65-1.264c-0.684-0.103-1.467-0.154-2.354-0.154h-3.84v19.492
			c0,1.515,0.131,2.435,0.391,2.759c0.26,0.325,1.035,0.521,2.324,0.59l0.699,0.017v1.06h-10.225v-1.06l0.699-0.017
			c1.289-0.068,2.061-0.265,2.316-0.59c0.254-0.324,0.381-1.244,0.381-2.759V25.541z"/>
		<path fill="#E8E7E7" d="M199.3,48.62c-2.037,0.843-3.896,1.264-5.574,1.264c-2.592,0-4.695-0.917-6.316-2.753
			c-1.619-1.835-2.43-4.217-2.43-7.146c0-2.781,0.727-5.061,2.178-6.839c1.453-1.778,3.316-2.667,5.592-2.667
			c2.104,0,3.721,0.745,4.852,2.234c1.133,1.489,1.699,3.615,1.699,6.376v0.324h-10.777c0,2.893,0.48,5.076,1.439,6.552
			c0.959,1.475,2.381,2.212,4.268,2.212c1.982,0,3.672-0.427,5.07-1.281V48.62z M188.589,38.37h7.314l0.016-0.752
			c0-2.152-0.266-3.707-0.797-4.664s-1.396-1.435-2.6-1.435s-2.16,0.621-2.869,1.862C188.942,34.623,188.589,36.286,188.589,38.37z"
			/>
		<path fill="#E8E7E7" d="M216.255,48.825c-1.691,0.706-3.344,1.059-4.959,1.059c-2.578,0-4.67-0.906-6.273-2.719
			c-1.604-1.812-2.406-4.171-2.406-7.078s0.771-5.235,2.316-6.984c1.545-1.75,3.6-2.625,6.168-2.625
			c1.312,0,3.029,0.279,5.154,0.837v4.424h-2l-0.016-0.308c0-2.551-1.068-3.827-3.203-3.827c-1.549,0-2.781,0.741-3.697,2.223
			c-0.916,1.482-1.373,3.488-1.373,6.02c0,2.588,0.541,4.629,1.625,6.122s2.557,2.24,4.42,2.24c1.604,0,3.02-0.284,4.244-0.854
			V48.825z"/>
		<path fill="#E8E7E7" d="M224.755,34.375c0.812-1.299,1.75-2.273,2.812-2.923c1.061-0.65,2.248-0.975,3.559-0.975
			c1.518,0,2.709,0.524,3.576,1.574c0.855,1.049,1.285,2.492,1.285,4.328v8.653c0.074,1.697,0.199,2.654,0.373,2.87
			c0.174,0.217,0.953,0.376,2.34,0.479l0.293,0.017v1.06h-9.217v-1.06l0.293-0.017c1.387-0.103,2.168-0.262,2.342-0.479
			c0.172-0.216,0.297-1.173,0.373-2.87v-8.125c0-1.597-0.197-2.706-0.594-3.328c-0.395-0.622-1.102-0.933-2.121-0.933
			c-0.715,0-1.518,0.237-2.406,0.71s-1.857,1.188-2.908,2.146v9.529c0,1.549,0.117,2.472,0.355,2.768
			c0.236,0.297,1.018,0.49,2.344,0.581l0.307,0.017v1.06h-9.215v-1.06l0.309-0.017c1.311-0.091,2.088-0.287,2.332-0.59
			c0.244-0.301,0.365-1.221,0.365-2.759V26.907c0-1.538-0.121-2.457-0.365-2.759s-1.021-0.498-2.332-0.589l-0.309-0.017v-1.059
			h6.209V34.375z"/>
	</g>
	<g>
		<path fill="#E8E7E7" d="M3.553,65.245l-0.461,1.023c-0.222,0.508-0.333,0.854-0.333,1.038c0,0.143,0.129,0.213,0.386,0.213
			c0.037,0.005,0.114,0.011,0.233,0.02l0.116,0.007v0.599H1.073v-0.599l0.117-0.007c0.327-0.021,0.532-0.077,0.616-0.168
			c0.084-0.09,0.267-0.457,0.549-1.102l3.383-7.743h0.625l3.408,7.75c0.298,0.64,0.489,1.003,0.573,1.089
			c0.083,0.086,0.297,0.144,0.641,0.174l0.08,0.007v0.599H7.283v-0.599l0.116-0.007c0.515-0.034,0.776-0.118,0.785-0.252
			c0.008-0.128-0.108-0.47-0.349-1.024L7.38,65.245H3.553z M3.839,64.607h3.256L5.44,60.903L3.839,64.607z"/>
		<path fill="#E8E7E7" d="M16.298,68.145v-1.334c-0.25,0.499-0.564,0.872-0.945,1.121c-0.38,0.249-0.824,0.374-1.332,0.374
			c-0.782,0-1.401-0.317-1.86-0.953c-0.458-0.636-0.687-1.493-0.687-2.57c0-1.177,0.26-2.116,0.779-2.819
			c0.52-0.702,1.215-1.053,2.087-1.053c0.376,0,0.727,0.073,1.052,0.219c0.325,0.146,0.627,0.365,0.905,0.657v-1.945
			c0-0.572-0.04-0.919-0.12-1.038c-0.08-0.12-0.328-0.192-0.745-0.219l-0.116-0.013v-0.599h2.795v8.304
			c0,0.575,0.041,0.922,0.123,1.04s0.329,0.192,0.742,0.223l0.116,0.007v0.599H16.298z M16.298,62.501
			c-0.242-0.228-0.475-0.398-0.7-0.512c-0.225-0.114-0.444-0.171-0.657-0.171c-0.512,0-0.896,0.229-1.152,0.689
			s-0.384,1.148-0.384,2.067c0,0.834,0.114,1.459,0.341,1.875c0.227,0.417,0.566,0.625,1.017,0.625c0.271,0,0.533-0.077,0.79-0.232
			c0.256-0.154,0.504-0.386,0.746-0.695V62.501z"/>
		<path fill="#E8E7E7" d="M23.045,68.222l-2.42-5.256c-0.286-0.584-0.491-0.94-0.616-1.066c-0.125-0.127-0.342-0.201-0.652-0.223
			L19.24,61.67v-0.599h3.783v0.599l-0.116,0.007c-0.433,0.03-0.656,0.116-0.668,0.258c-0.008,0.099,0.123,0.442,0.392,1.03
			l1.339,2.925l1.376-2.925c0.274-0.575,0.411-0.932,0.411-1.069c0-0.116-0.219-0.188-0.656-0.219l-0.11-0.007v-0.599h2.49v0.599
			l-0.116,0.007c-0.319,0.021-0.533,0.087-0.644,0.196s-0.317,0.466-0.619,1.07l-2.497,5.278H23.045z"/>
		<path fill="#E8E7E7" d="M31.843,67.326c-0.323,0.326-0.652,0.571-0.99,0.734c-0.337,0.163-0.681,0.245-1.033,0.245
			c-0.597,0-1.091-0.194-1.483-0.583s-0.588-0.88-0.588-1.472c0-0.691,0.249-1.244,0.748-1.656c0.298-0.249,0.652-0.422,1.061-0.519
			s0.985-0.145,1.729-0.145h0.307v-0.857c0-0.605-0.073-1.018-0.218-1.236s-0.414-0.329-0.806-0.329
			c-0.478,0-0.837,0.136-1.079,0.406c-0.082,0.086-0.135,0.374-0.159,0.863L29.324,62.9h-0.987v-1.43
			c0.776-0.374,1.587-0.561,2.434-0.561c0.85,0,1.501,0.185,1.955,0.554c0.454,0.37,0.681,0.9,0.681,1.592v3.104
			c0,0.55,0.039,0.924,0.116,1.121c0.074,0.202,0.214,0.303,0.423,0.303c0.062,0,0.133-0.013,0.215-0.038l0.08,0.599
			c-0.315,0.107-0.623,0.161-0.926,0.161c-0.331,0-0.619-0.082-0.864-0.245S32.002,67.652,31.843,67.326z M31.592,66.856v-2.346
			h-0.239c-0.604,0-1.06,0.128-1.364,0.384s-0.457,0.639-0.457,1.149c0,0.379,0.097,0.68,0.291,0.905
			c0.194,0.226,0.455,0.339,0.782,0.339c0.184,0,0.357-0.037,0.521-0.11C31.289,67.105,31.444,66.998,31.592,66.856z"/>
		<path fill="#E8E7E7" d="M37.452,62.404c0.278-0.498,0.609-0.871,0.993-1.12s0.821-0.374,1.312-0.374
			c0.604,0,1.079,0.195,1.422,0.586c0.339,0.396,0.509,0.943,0.509,1.643v3.138c0,0.575,0.042,0.922,0.125,1.04
			c0.084,0.118,0.332,0.192,0.745,0.223l0.117,0.007v0.599h-3.782v-0.599l0.11-0.007c0.417-0.03,0.666-0.104,0.748-0.223
			s0.123-0.465,0.123-1.04v-2.918c0-0.503-0.056-0.843-0.168-1.021c-0.112-0.178-0.328-0.268-0.647-0.268
			c-0.273,0-0.544,0.087-0.812,0.261c-0.268,0.175-0.532,0.438-0.794,0.79v3.156c0,0.575,0.042,0.922,0.125,1.04
			c0.083,0.118,0.33,0.192,0.74,0.223l0.116,0.007v0.599h-3.776v-0.599l0.117-0.007c0.413-0.03,0.66-0.104,0.742-0.223
			c0.082-0.118,0.123-0.465,0.123-1.04v-3.337c0-0.575-0.041-0.922-0.123-1.04c-0.082-0.118-0.329-0.192-0.742-0.223l-0.117-0.007
			v-0.599h2.795V62.404z"/>
		<path fill="#E8E7E7" d="M48.847,67.977c-0.699,0.22-1.369,0.329-2.01,0.329c-1.173,0-2.096-0.336-2.768-1.008
			c-0.672-0.673-1.008-1.597-1.008-2.773c0-1.125,0.319-2.009,0.956-2.651c0.638-0.642,1.516-0.963,2.636-0.963
			c0.707,0,1.43,0.107,2.17,0.322v1.823h-0.871l-0.006-0.116c-0.033-0.537-0.094-0.863-0.184-0.979
			c-0.229-0.301-0.582-0.451-1.06-0.451c-0.572,0-1.001,0.245-1.288,0.734c-0.286,0.49-0.429,1.225-0.429,2.204
			c0,1,0.191,1.752,0.573,2.254c0.382,0.503,0.953,0.754,1.713,0.754c0.47,0,0.995-0.12,1.575-0.36V67.977z"/>
		<path fill="#E8E7E7" d="M55.914,67.867c-0.801,0.292-1.582,0.438-2.342,0.438c-1.148,0-2.056-0.339-2.725-1.018
			c-0.668-0.679-1.002-1.601-1.002-2.764c0-1.074,0.301-1.944,0.904-2.612c0.603-0.668,1.389-1.002,2.357-1.002
			c1.872,0,2.808,1.207,2.808,3.62v0.142h-4.205c0,0.894,0.198,1.563,0.595,2.011c0.396,0.446,0.991,0.67,1.784,0.67
			c0.54,0,1.148-0.155,1.827-0.464V67.867z M51.752,64.073h2.378v-0.226c0-0.854-0.082-1.458-0.246-1.811
			c-0.164-0.352-0.446-0.528-0.848-0.528c-0.426,0-0.747,0.214-0.961,0.642C51.859,62.577,51.752,63.219,51.752,64.073z"/>
		<path fill="#E8E7E7" d="M61.755,68.145v-1.334c-0.25,0.499-0.564,0.872-0.945,1.121c-0.38,0.249-0.824,0.374-1.332,0.374
			c-0.782,0-1.401-0.317-1.86-0.953c-0.458-0.636-0.687-1.493-0.687-2.57c0-1.177,0.26-2.116,0.779-2.819
			c0.52-0.702,1.215-1.053,2.087-1.053c0.376,0,0.727,0.073,1.052,0.219c0.325,0.146,0.627,0.365,0.905,0.657v-1.945
			c0-0.572-0.04-0.919-0.12-1.038c-0.08-0.12-0.328-0.192-0.745-0.219l-0.116-0.013v-0.599h2.795v8.304
			c0,0.575,0.041,0.922,0.123,1.04s0.329,0.192,0.742,0.223l0.116,0.007v0.599H61.755z M61.755,62.501
			c-0.242-0.228-0.475-0.398-0.7-0.512c-0.225-0.114-0.444-0.171-0.657-0.171c-0.512,0-0.896,0.229-1.152,0.689
			s-0.384,1.148-0.384,2.067c0,0.834,0.114,1.459,0.341,1.875c0.227,0.417,0.566,0.625,1.017,0.625c0.271,0,0.533-0.077,0.79-0.232
			c0.256-0.154,0.504-0.386,0.746-0.695V62.501z"/>
		<path fill="#E8E7E7" d="M75.792,68.145h-6.92v-0.599l0.116-0.007c0.413-0.03,0.66-0.104,0.742-0.221
			c0.082-0.118,0.123-0.463,0.123-1.035v-5.812c0-0.572-0.04-0.916-0.119-1.031c-0.08-0.115-0.328-0.19-0.745-0.225l-0.116-0.007
			V58.61h6.657v1.707h-0.907l-0.012-0.122c-0.012-0.22-0.019-0.349-0.019-0.387c0-0.24-0.054-0.396-0.163-0.464
			c-0.108-0.068-0.352-0.104-0.732-0.104h-1.949v3.621h1.263c0.486,0,0.765-0.013,0.837-0.038c0.071-0.026,0.111-0.224,0.12-0.595
			l0.012-0.121h0.644v2.062h-0.644l-0.013-0.116c-0.008-0.339-0.065-0.53-0.172-0.573s-0.368-0.064-0.784-0.064H71.71v2.86
			c0,0.713,0.08,1.093,0.24,1.141c0.119,0.034,0.445,0.051,0.978,0.051h0.763c0.61,0,0.952-0.031,1.027-0.093
			c0.075-0.062,0.129-0.362,0.162-0.899l0.006-0.122h0.907V68.145z"/>
		<path fill="#E8E7E7" d="M79.139,57.973v8.304c0,0.575,0.042,0.922,0.125,1.04c0.083,0.118,0.33,0.192,0.74,0.223l0.116,0.007
			v0.599h-3.776v-0.599l0.117-0.007c0.413-0.03,0.66-0.104,0.742-0.223c0.082-0.118,0.123-0.465,0.123-1.04v-6.436
			c0-0.572-0.041-0.919-0.123-1.038c-0.082-0.12-0.329-0.192-0.742-0.219l-0.117-0.013v-0.599H79.139z"/>
		<path fill="#E8E7E7" d="M86.691,67.867c-0.801,0.292-1.582,0.438-2.342,0.438c-1.148,0-2.056-0.339-2.725-1.018
			c-0.668-0.679-1.002-1.601-1.002-2.764c0-1.074,0.301-1.944,0.904-2.612c0.603-0.668,1.389-1.002,2.357-1.002
			c1.872,0,2.808,1.207,2.808,3.62v0.142h-4.205c0,0.894,0.198,1.563,0.595,2.011c0.396,0.446,0.991,0.67,1.784,0.67
			c0.54,0,1.148-0.155,1.827-0.464V67.867z M82.529,64.073h2.378v-0.226c0-0.854-0.082-1.458-0.246-1.811
			c-0.164-0.352-0.446-0.528-0.848-0.528c-0.426,0-0.747,0.214-0.961,0.642C82.636,62.577,82.529,63.219,82.529,64.073z"/>
		<path fill="#E8E7E7" d="M93.464,67.977c-0.699,0.22-1.369,0.329-2.01,0.329c-1.173,0-2.096-0.336-2.768-1.008
			c-0.672-0.673-1.008-1.597-1.008-2.773c0-1.125,0.319-2.009,0.956-2.651c0.638-0.642,1.516-0.963,2.636-0.963
			c0.707,0,1.43,0.107,2.17,0.322v1.823h-0.871l-0.006-0.116c-0.033-0.537-0.094-0.863-0.184-0.979
			c-0.229-0.301-0.582-0.451-1.06-0.451c-0.572,0-1.001,0.245-1.288,0.734c-0.286,0.49-0.429,1.225-0.429,2.204
			c0,1,0.191,1.752,0.573,2.254c0.382,0.503,0.953,0.754,1.713,0.754c0.47,0,0.995-0.12,1.575-0.36V67.977z"/>
		<path fill="#E8E7E7" d="M98.637,68.087c-0.38,0.146-0.752,0.219-1.116,0.219c-0.756,0-1.323-0.196-1.701-0.59
			c-0.378-0.393-0.567-0.982-0.567-1.768v-4.239H94.42v-0.638h0.833v-1.192l1.814-0.335v1.527h1.49v0.638h-1.49v4.284
			c0,0.631,0.059,1.048,0.178,1.249c0.119,0.202,0.364,0.304,0.736,0.304c0.204,0,0.423-0.05,0.656-0.148V68.087z"/>
		<path fill="#E8E7E7" d="M101.941,63.094v3.183c0,0.584,0.045,0.932,0.135,1.044c0.09,0.111,0.386,0.185,0.889,0.219l0.116,0.007
			v0.599h-3.935v-0.599l0.117-0.007c0.413-0.03,0.66-0.104,0.742-0.223c0.082-0.118,0.123-0.465,0.123-1.04v-3.337
			c0-0.575-0.041-0.922-0.123-1.04c-0.082-0.118-0.329-0.192-0.742-0.223l-0.117-0.007v-0.599h2.795v1.333
			c0.552-0.996,1.267-1.494,2.146-1.494c0.094,0,0.212,0.018,0.355,0.052v2.255h-0.833l-0.006-0.116
			c-0.033-0.477-0.062-0.746-0.089-0.809c-0.026-0.062-0.127-0.094-0.303-0.094C102.687,62.198,102.264,62.497,101.941,63.094z"/>
		<path fill="#E8E7E7" d="M108.647,68.306c-1.087,0-1.942-0.33-2.565-0.989s-0.935-1.562-0.935-2.709
			c0-1.146,0.312-2.049,0.935-2.708c0.623-0.66,1.479-0.989,2.565-0.989c1.083,0,1.936,0.329,2.559,0.989
			c0.623,0.659,0.935,1.562,0.935,2.708c0,1.147-0.312,2.05-0.935,2.709S109.729,68.306,108.647,68.306z M108.647,67.629
			c0.499,0,0.871-0.252,1.119-0.757c0.247-0.505,0.371-1.259,0.371-2.265c0-1.009-0.124-1.765-0.371-2.268
			c-0.248-0.502-0.62-0.753-1.119-0.753s-0.873,0.251-1.122,0.753c-0.25,0.503-0.374,1.259-0.374,2.268
			c0,1.006,0.125,1.76,0.374,2.265C107.774,67.377,108.148,67.629,108.647,67.629z"/>
		<path fill="#E8E7E7" d="M115.463,67.43v1.392c0,0.57,0.042,0.917,0.125,1.037c0.083,0.12,0.33,0.195,0.74,0.226l0.116,0.006v0.6
			h-3.776v-0.6l0.116-0.006c0.413-0.03,0.66-0.104,0.742-0.223c0.082-0.118,0.123-0.465,0.123-1.04v-5.882
			c0-0.575-0.041-0.922-0.123-1.04c-0.082-0.118-0.329-0.192-0.742-0.223l-0.116-0.007v-0.599h2.795v1.333
			c0.253-0.498,0.566-0.871,0.939-1.12c0.373-0.249,0.807-0.374,1.3-0.374c0.763,0,1.37,0.317,1.821,0.953
			c0.451,0.636,0.678,1.493,0.678,2.57c0,1.177-0.256,2.116-0.766,2.818c-0.51,0.702-1.19,1.054-2.041,1.054
			c-0.365,0-0.708-0.073-1.029-0.219C116.045,67.94,115.744,67.722,115.463,67.43z M115.463,66.715
			c0.238,0.228,0.467,0.398,0.687,0.512c0.22,0.114,0.431,0.171,0.633,0.171c0.496,0,0.868-0.231,1.115-0.692
			c0.248-0.462,0.372-1.152,0.372-2.071c0-0.833-0.109-1.457-0.327-1.872c-0.218-0.414-0.547-0.621-0.987-0.621
			c-0.258,0-0.512,0.077-0.762,0.231c-0.25,0.155-0.494,0.387-0.731,0.696V66.715z"/>
		<path fill="#E8E7E7" d="M123.683,62.404c0.277-0.498,0.609-0.871,0.994-1.12c0.383-0.249,0.82-0.374,1.311-0.374
			c0.605,0,1.078,0.195,1.422,0.586c0.34,0.396,0.51,0.943,0.51,1.643v3.138c0,0.575,0.041,0.922,0.125,1.04
			s0.332,0.192,0.744,0.223l0.117,0.007v0.599h-3.781v-0.599l0.109-0.007c0.418-0.03,0.666-0.104,0.748-0.223
			s0.123-0.465,0.123-1.04v-2.918c0-0.503-0.057-0.843-0.17-1.021c-0.111-0.178-0.326-0.268-0.646-0.268
			c-0.273,0-0.543,0.087-0.811,0.261c-0.27,0.175-0.533,0.438-0.795,0.79v3.156c0,0.575,0.041,0.922,0.125,1.04
			s0.33,0.192,0.74,0.223l0.115,0.007v0.599h-3.775v-0.599l0.117-0.007c0.412-0.03,0.66-0.104,0.74-0.223
			c0.082-0.118,0.123-0.465,0.123-1.04v-6.436c0-0.572-0.041-0.919-0.123-1.038c-0.08-0.12-0.328-0.192-0.74-0.219l-0.117-0.013
			v-0.599h2.795V62.404z"/>
		<path fill="#E8E7E7" d="M130.175,70.689l2.299-2.622l-2.264-5.147c-0.281-0.605-0.471-0.959-0.57-1.06
			c-0.098-0.101-0.305-0.162-0.619-0.184l-0.115-0.007v-0.599h3.816v0.599h-0.111c-0.494,0-0.74,0.078-0.74,0.232
			c0,0.09,0.127,0.435,0.385,1.031l1.26,2.924l1.471-2.931c0.295-0.58,0.441-0.935,0.441-1.063s-0.209-0.193-0.625-0.193h-0.111
			v-0.599h2.42v0.599l-0.117,0.007c-0.352,0.025-0.572,0.083-0.664,0.171s-0.297,0.447-0.617,1.078l-3.93,7.764H130.175z"/>
		<path fill="#E8E7E7" d="M137.794,67.822v-1.823h0.826l0.006,0.116c0.025,0.532,0.1,0.874,0.229,1.024
			c0.328,0.378,0.814,0.566,1.459,0.566c0.312,0,0.576-0.104,0.791-0.315c0.215-0.21,0.324-0.47,0.324-0.779
			c0-0.477-0.383-0.874-1.146-1.191l-0.559-0.232c-1.287-0.537-1.93-1.261-1.93-2.171c0-0.645,0.248-1.156,0.742-1.536
			c0.496-0.38,1.166-0.57,2.012-0.57c0.67,0,1.367,0.111,2.094,0.335v1.694h-0.834l-0.006-0.122l-0.012-0.31
			c0-0.666-0.369-0.999-1.107-0.999c-0.322,0-0.594,0.11-0.818,0.329s-0.336,0.487-0.336,0.805c0,0.267,0.082,0.477,0.248,0.629
			s0.506,0.331,1.02,0.537l0.553,0.226c1.254,0.507,1.881,1.186,1.881,2.036c0,0.648-0.266,1.183-0.797,1.604
			s-1.205,0.632-2.021,0.632C139.397,68.306,138.524,68.145,137.794,67.822z"/>
		<path fill="#E8E7E7" d="M146.681,61.071v5.205c0,0.575,0.041,0.922,0.125,1.04s0.33,0.192,0.74,0.223l0.115,0.007v0.599h-3.775
			v-0.599l0.117-0.007c0.412-0.03,0.66-0.104,0.74-0.223c0.082-0.118,0.123-0.465,0.123-1.04v-3.337c0-0.575-0.041-0.922-0.123-1.04
			c-0.08-0.118-0.328-0.192-0.74-0.223l-0.117-0.007v-0.599H146.681z M144.866,59.879v-1.906h1.814v1.906H144.866z"/>
		<path fill="#E8E7E7" d="M151.663,68.306c-1.086,0-1.941-0.33-2.564-0.989s-0.936-1.562-0.936-2.709
			c0-1.146,0.312-2.049,0.936-2.708c0.623-0.66,1.479-0.989,2.564-0.989c1.084,0,1.938,0.329,2.561,0.989
			c0.623,0.659,0.934,1.562,0.934,2.708c0,1.147-0.311,2.05-0.934,2.709S152.747,68.306,151.663,68.306z M151.663,67.629
			c0.5,0,0.873-0.252,1.119-0.757c0.248-0.505,0.371-1.259,0.371-2.265c0-1.009-0.123-1.765-0.371-2.268
			c-0.246-0.502-0.619-0.753-1.119-0.753c-0.498,0-0.871,0.251-1.121,0.753c-0.248,0.503-0.373,1.259-0.373,2.268
			c0,1.006,0.125,1.76,0.373,2.265C150.792,67.377,151.165,67.629,151.663,67.629z"/>
		<path fill="#E8E7E7" d="M158.517,57.973v8.304c0,0.575,0.041,0.922,0.125,1.04s0.33,0.192,0.74,0.223l0.115,0.007v0.599h-3.775
			v-0.599l0.117-0.007c0.412-0.03,0.66-0.104,0.74-0.223c0.082-0.118,0.123-0.465,0.123-1.04v-6.436
			c0-0.572-0.041-0.919-0.123-1.038c-0.08-0.12-0.328-0.192-0.74-0.219l-0.117-0.013v-0.599H158.517z"/>
		<path fill="#E8E7E7" d="M163.499,68.306c-1.086,0-1.941-0.33-2.564-0.989s-0.936-1.562-0.936-2.709
			c0-1.146,0.312-2.049,0.936-2.708c0.623-0.66,1.479-0.989,2.564-0.989c1.084,0,1.938,0.329,2.561,0.989
			c0.623,0.659,0.934,1.562,0.934,2.708c0,1.147-0.311,2.05-0.934,2.709S164.583,68.306,163.499,68.306z M163.499,67.629
			c0.5,0,0.873-0.252,1.119-0.757c0.248-0.505,0.371-1.259,0.371-2.265c0-1.009-0.123-1.765-0.371-2.268
			c-0.246-0.502-0.619-0.753-1.119-0.753c-0.498,0-0.871,0.251-1.121,0.753c-0.248,0.503-0.373,1.259-0.373,2.268
			c0,1.006,0.125,1.76,0.373,2.265C162.628,67.377,163.001,67.629,163.499,67.629z"/>
		<path fill="#E8E7E7" d="M169.075,67.894c-0.467-0.258-0.701-0.567-0.701-0.928c0-0.232,0.107-0.459,0.322-0.68
			c0.213-0.222,0.535-0.438,0.963-0.647c-0.504-0.197-0.883-0.483-1.135-0.856c-0.252-0.374-0.377-0.836-0.377-1.386
			c0-0.756,0.248-1.359,0.744-1.81c0.496-0.451,1.158-0.677,1.986-0.677c0.262,0,0.508,0.021,0.738,0.064s0.447,0.107,0.652,0.193
			l2.504-0.219l-0.379,1.018l-1.324-0.193c0.389,0.485,0.582,1.014,0.582,1.585c0,0.708-0.242,1.302-0.729,1.781
			c-0.484,0.479-1.088,0.718-1.805,0.718c-0.146,0-0.348-0.011-0.6-0.032l-0.355-0.064c-0.139,0.112-0.242,0.223-0.312,0.332
			c-0.068,0.109-0.104,0.22-0.104,0.332c0,0.271,0.332,0.405,0.998,0.405h1.027c0.955,0,1.635,0.127,2.039,0.38
			c0.4,0.258,0.6,0.689,0.6,1.295c0,0.705-0.322,1.271-0.965,1.701c-0.645,0.43-1.494,0.645-2.553,0.645
			c-0.949,0-1.725-0.143-2.33-0.426c-0.604-0.283-0.906-0.646-0.906-1.089C167.657,68.692,168.13,68.211,169.075,67.894z
			 M169.661,68.067c-0.168,0.382-0.252,0.689-0.252,0.921c0,0.348,0.16,0.646,0.479,0.893s0.701,0.37,1.146,0.37
			c0.486,0,0.893-0.133,1.217-0.399s0.486-0.597,0.486-0.992c0-0.266-0.115-0.465-0.346-0.596s-0.576-0.196-1.039-0.196H169.661z
			 M169.851,63.423c0,0.627,0.088,1.098,0.264,1.414c0.176,0.315,0.438,0.473,0.785,0.473c0.352,0,0.613-0.157,0.787-0.473
			c0.174-0.316,0.262-0.787,0.262-1.414c0-0.632-0.088-1.104-0.262-1.418s-0.436-0.47-0.787-0.47c-0.348,0-0.609,0.156-0.785,0.47
			S169.851,62.791,169.851,63.423z"/>
		<path fill="#E8E7E7" d="M176.153,70.689l2.299-2.622l-2.264-5.147c-0.281-0.605-0.471-0.959-0.57-1.06
			c-0.098-0.101-0.305-0.162-0.619-0.184l-0.115-0.007v-0.599h3.816v0.599h-0.111c-0.494,0-0.74,0.078-0.74,0.232
			c0,0.09,0.127,0.435,0.385,1.031l1.26,2.924l1.471-2.931c0.295-0.58,0.441-0.935,0.441-1.063s-0.209-0.193-0.625-0.193h-0.111
			v-0.599h2.42v0.599l-0.117,0.007c-0.352,0.025-0.572,0.083-0.664,0.171s-0.297,0.447-0.617,1.078l-3.93,7.764H176.153z"/>
		<path fill="#E8E7E7" d="M187.614,68.028v-1.99h0.908l0.006,0.155c0.027,0.564,0.133,0.925,0.312,1.08
			c0.371,0.318,0.812,0.479,1.324,0.479c0.48,0,0.873-0.157,1.174-0.471c0.299-0.313,0.449-0.724,0.449-1.23
			c0-0.399-0.088-0.722-0.264-0.966c-0.176-0.241-0.514-0.507-1.018-0.799l-0.605-0.349c-1.518-0.88-2.275-1.838-2.275-2.873
			c0-0.812,0.275-1.463,0.822-1.955c0.547-0.491,1.275-0.737,2.182-0.737c0.711,0,1.525,0.14,2.439,0.419v1.919h-0.906l-0.006-0.115
			c-0.033-0.602-0.117-0.976-0.252-1.121c-0.305-0.313-0.686-0.471-1.143-0.471c-0.391,0-0.719,0.147-0.99,0.441
			c-0.27,0.294-0.404,0.656-0.404,1.086c0,0.326,0.088,0.603,0.266,0.827c0.178,0.226,0.516,0.489,1.016,0.789l0.611,0.374
			c0.896,0.541,1.508,1.022,1.84,1.443c0.326,0.425,0.49,0.942,0.49,1.553c0,0.871-0.311,1.567-0.928,2.087
			c-0.619,0.52-1.453,0.779-2.498,0.779C189.425,68.383,188.575,68.265,187.614,68.028z"/>
		<path fill="#E8E7E7" d="M195.247,70.689l2.299-2.622l-2.264-5.147c-0.281-0.605-0.471-0.959-0.57-1.06
			c-0.098-0.101-0.305-0.162-0.619-0.184l-0.115-0.007v-0.599h3.816v0.599h-0.111c-0.494,0-0.74,0.078-0.74,0.232
			c0,0.09,0.127,0.435,0.385,1.031l1.26,2.924l1.471-2.931c0.295-0.58,0.441-0.935,0.441-1.063s-0.209-0.193-0.625-0.193h-0.111
			v-0.599h2.42v0.599l-0.117,0.007c-0.352,0.025-0.572,0.083-0.664,0.171s-0.297,0.447-0.617,1.078l-3.93,7.764H195.247z"/>
		<path fill="#E8E7E7" d="M202.864,67.822v-1.823h0.828l0.006,0.116c0.023,0.532,0.1,0.874,0.227,1.024
			c0.328,0.378,0.814,0.566,1.459,0.566c0.312,0,0.576-0.104,0.793-0.315c0.215-0.21,0.322-0.47,0.322-0.779
			c0-0.477-0.383-0.874-1.146-1.191l-0.557-0.232c-1.287-0.537-1.932-1.261-1.932-2.171c0-0.645,0.248-1.156,0.744-1.536
			s1.166-0.57,2.012-0.57c0.668,0,1.367,0.111,2.094,0.335v1.694h-0.834l-0.006-0.122l-0.014-0.31c0-0.666-0.367-0.999-1.105-0.999
			c-0.322,0-0.596,0.11-0.82,0.329c-0.223,0.219-0.336,0.487-0.336,0.805c0,0.267,0.084,0.477,0.248,0.629
			c0.166,0.152,0.506,0.331,1.021,0.537l0.551,0.226c1.256,0.507,1.883,1.186,1.883,2.036c0,0.648-0.266,1.183-0.797,1.604
			s-1.205,0.632-2.023,0.632C204.468,68.306,203.597,68.145,202.864,67.822z"/>
		<path fill="#E8E7E7" d="M213.327,68.087c-0.379,0.146-0.752,0.219-1.115,0.219c-0.756,0-1.322-0.196-1.701-0.59
			c-0.377-0.393-0.566-0.982-0.566-1.768v-4.239h-0.834v-0.638h0.834v-1.192l1.814-0.335v1.527h1.488v0.638h-1.488v4.284
			c0,0.631,0.059,1.048,0.178,1.249c0.117,0.202,0.363,0.304,0.734,0.304c0.205,0,0.424-0.05,0.656-0.148V68.087z"/>
		<path fill="#E8E7E7" d="M220.101,67.867c-0.801,0.292-1.58,0.438-2.34,0.438c-1.148,0-2.057-0.339-2.725-1.018
			s-1.004-1.601-1.004-2.764c0-1.074,0.303-1.944,0.904-2.612c0.604-0.668,1.389-1.002,2.357-1.002c1.871,0,2.807,1.207,2.807,3.62
			v0.142h-4.203c0,0.894,0.197,1.563,0.594,2.011c0.396,0.446,0.99,0.67,1.783,0.67c0.539,0,1.148-0.155,1.826-0.464V67.867z
			 M215.938,64.073h2.379v-0.226c0-0.854-0.082-1.458-0.246-1.811c-0.164-0.352-0.445-0.528-0.848-0.528
			c-0.426,0-0.746,0.214-0.961,0.642C216.048,62.577,215.938,63.219,215.938,64.073z"/>
		<path fill="#E8E7E7" d="M223.612,62.404c0.332-0.498,0.691-0.871,1.076-1.12c0.387-0.249,0.801-0.374,1.242-0.374
			c0.49,0,0.879,0.125,1.168,0.374c0.287,0.249,0.475,0.622,0.561,1.12c0.4-0.498,0.803-0.871,1.209-1.12
			c0.404-0.249,0.811-0.374,1.215-0.374c1.188,0,1.781,0.677,1.781,2.029v3.337c0,0.575,0.041,0.922,0.121,1.04
			c0.082,0.118,0.332,0.192,0.748,0.223l0.111,0.007v0.599h-3.549v-0.599l0.115-0.007c0.34-0.021,0.545-0.094,0.611-0.216
			s0.1-0.472,0.1-1.047v-2.91c0-0.864-0.262-1.297-0.785-1.297c-0.295,0-0.576,0.093-0.842,0.279
			c-0.268,0.186-0.52,0.466-0.756,0.842v3.086c0,0.571,0.033,0.919,0.104,1.044c0.068,0.124,0.273,0.197,0.613,0.219l0.109,0.007
			v0.599h-3.395v-0.599l0.115-0.007c0.34-0.021,0.545-0.093,0.611-0.213s0.1-0.47,0.1-1.05v-2.905c0-0.434-0.064-0.759-0.195-0.977
			c-0.131-0.217-0.33-0.325-0.596-0.325c-0.301,0-0.586,0.092-0.852,0.274s-0.512,0.458-0.742,0.827v3.105
			c0,0.571,0.037,0.919,0.107,1.044c0.07,0.124,0.273,0.197,0.605,0.219l0.115,0.007v0.599h-3.549v-0.599l0.117-0.007
			c0.412-0.03,0.66-0.104,0.74-0.223c0.082-0.118,0.123-0.465,0.123-1.04v-3.337c0-0.575-0.041-0.922-0.123-1.04
			c-0.08-0.118-0.328-0.192-0.74-0.223l-0.117-0.007v-0.599h2.721V62.404z"/>
		<path fill="#E8E7E7" d="M233.519,67.822v-1.823h0.828l0.006,0.116c0.023,0.532,0.1,0.874,0.227,1.024
			c0.328,0.378,0.814,0.566,1.459,0.566c0.312,0,0.576-0.104,0.793-0.315c0.215-0.21,0.322-0.47,0.322-0.779
			c0-0.477-0.383-0.874-1.146-1.191l-0.557-0.232c-1.287-0.537-1.932-1.261-1.932-2.171c0-0.645,0.248-1.156,0.744-1.536
			s1.166-0.57,2.012-0.57c0.668,0,1.367,0.111,2.094,0.335v1.694h-0.834l-0.006-0.122l-0.014-0.31c0-0.666-0.367-0.999-1.105-0.999
			c-0.322,0-0.596,0.11-0.82,0.329c-0.223,0.219-0.336,0.487-0.336,0.805c0,0.267,0.084,0.477,0.248,0.629
			c0.166,0.152,0.506,0.331,1.021,0.537l0.551,0.226c1.256,0.507,1.883,1.186,1.883,2.036c0,0.648-0.266,1.183-0.797,1.604
			s-1.205,0.632-2.023,0.632C235.122,68.306,234.251,68.145,233.519,67.822z"/>
	</g>
</g>
</svg>
